<svg width="125" height="34" viewBox="0 0 125 34" fill="none" xmlns="http://www.w3.org/2000/svg">
<path fill-rule="evenodd" clip-rule="evenodd" d="M29 0H0V33H29V0ZM10.1836 25.1056C9.90299 25.281 9.52587 25.3863 9.05227 25.4213C8.43834 25.474 8.02613 25.5617 7.81564 25.6844C7.6227 25.8072 7.52622 25.9826 7.52622 26.2107C7.52622 26.5439 7.64901 26.7632 7.89458 26.8684C8.15769 26.9561 8.5699 27 9.1312 27H15.7879C16.2791 27 16.5948 26.9211 16.7351 26.7632C16.893 26.6053 16.9719 26.4036 16.9719 26.158C16.9719 25.8599 16.8754 25.6494 16.6825 25.5266C16.5071 25.4038 16.2264 25.3424 15.8405 25.3424H13.0779V18.2647C13.4638 18.2823 13.7883 18.2998 14.0514 18.3173H14.867C15.8318 18.3173 16.8316 18.2033 17.8665 17.9753C18.9189 17.7297 19.8749 17.3351 20.7344 16.7913C21.6114 16.2475 22.3306 15.5371 22.8919 14.6601C23.4532 13.7655 23.7339 12.6604 23.7339 11.3449C23.7339 10.2574 23.5322 9.33647 23.1287 8.58222C22.7428 7.82797 22.1991 7.21404 21.4974 6.74044C20.8133 6.26684 20.0065 5.9248 19.0768 5.71431C18.1471 5.50382 17.1473 5.39858 16.0773 5.39858C15.3406 5.39858 14.6565 5.40735 14.0251 5.42489C13.4111 5.42489 12.806 5.43366 12.2096 5.4512C11.6308 5.4512 11.0519 5.45997 10.4731 5.47751H8.6576C7.99105 5.47751 7.65778 5.74939 7.65778 6.29315C7.65778 6.53872 7.7104 6.74044 7.81564 6.89831C7.92089 7.03864 8.06999 7.11757 8.26293 7.13511L9.63111 7.24035C9.96439 7.27544 10.1836 7.38068 10.2889 7.55609C10.3941 7.7315 10.4555 7.9683 10.4731 8.26649C10.5081 9.10844 10.5432 10.1521 10.5783 11.3975C10.6134 12.6254 10.6309 13.9935 10.6309 15.502V18.0016C10.6309 18.6681 10.6222 19.3084 10.6046 19.9223V21.8167V24.211C10.6046 24.632 10.4643 24.9302 10.1836 25.1056ZM13.9988 7.55609C14.3145 7.52101 14.639 7.50346 14.9723 7.50346C15.4634 7.50346 16.0598 7.52978 16.7614 7.5824C17.4806 7.63502 18.1647 7.79289 18.8137 8.056C19.4802 8.30157 20.0415 8.68747 20.4976 9.21369C20.9712 9.73991 21.208 10.4766 21.208 11.4238C21.208 12.143 21.0589 12.792 20.7607 13.3708C20.4625 13.9497 20.0415 14.4496 19.4978 14.8706C18.954 15.274 18.2962 15.5897 17.5244 15.8178C16.7527 16.0458 15.8932 16.1598 14.946 16.1598H13.9988C13.6655 16.1423 13.3585 16.1247 13.0779 16.1072V7.68764C13.3761 7.63502 13.683 7.59117 13.9988 7.55609ZM37.4189 18.6594C37.5066 19.0979 37.5505 19.589 37.5505 20.1328V21.6588C37.0067 21.3256 36.463 21.0888 35.9192 20.9484C35.3754 20.8081 34.7878 20.738 34.1564 20.738C32.6654 20.738 31.4989 21.0712 30.657 21.7378C29.8326 22.3868 29.4204 23.2112 29.4204 24.211C29.4204 25.1582 29.7799 25.9125 30.4991 26.4738C31.2358 27.0175 32.2181 27.2894 33.446 27.2894C34.2704 27.2894 35.0246 27.1579 35.7087 26.8948C36.4103 26.6316 37.0418 26.2457 37.6031 25.7371C37.7785 26.351 38.0504 26.7632 38.4188 26.9737C38.8047 27.1842 39.2256 27.2894 39.6817 27.2894C40.3132 27.2894 40.8394 27.1228 41.2604 26.7895C41.6813 26.4387 41.8918 25.9037 41.8918 25.1845C41.8918 24.7811 41.8129 24.5092 41.655 24.3689C41.5147 24.2286 41.313 24.1584 41.0499 24.1584C40.6991 24.1584 40.4886 24.2373 40.4184 24.3952C40.3482 24.5531 40.3044 24.7285 40.2868 24.9214C40.2868 25.0091 40.2693 25.0881 40.2342 25.1582C40.1991 25.2108 40.1377 25.2372 40.05 25.2372C39.9273 25.2372 39.8571 25.1495 39.8396 24.974C39.822 24.7986 39.8132 24.3864 39.8132 23.7374V22.8428L39.8659 21.7904C39.8834 21.422 39.8922 21.0712 39.8922 20.738C39.9097 20.4047 39.9185 20.1328 39.9185 19.9223C39.9185 18.2735 39.5238 17.0018 38.7345 16.1072C37.9452 15.2126 36.6998 14.7653 34.9983 14.7653C34.2616 14.7653 33.5863 14.853 32.9724 15.0284C32.376 15.2039 31.8585 15.4407 31.42 15.7388C30.999 16.037 30.6657 16.3966 30.4202 16.8176C30.1921 17.2386 30.0781 17.6946 30.0781 18.1858C30.0781 18.3963 30.0957 18.6068 30.1308 18.8172C30.1834 19.0277 30.2711 19.2295 30.3939 19.4224C30.5167 19.5978 30.6745 19.7469 30.8675 19.8697C31.078 19.9749 31.3323 20.0276 31.6305 20.0276C31.9287 20.0276 32.2181 19.9574 32.4988 19.8171C32.7794 19.6767 32.9197 19.4136 32.9197 19.0277C32.9197 18.6243 32.7443 18.3436 32.3935 18.1858C32.3584 18.1682 32.297 18.1419 32.2093 18.1068C32.1392 18.0542 32.1041 17.9577 32.1041 17.8174C32.1041 17.6596 32.1743 17.5017 32.3146 17.3438C32.4724 17.186 32.6742 17.0544 32.9197 16.9492C33.1653 16.8264 33.446 16.7299 33.7617 16.6597C34.095 16.5896 34.437 16.5545 34.7878 16.5545C35.3316 16.5545 35.7789 16.6422 36.1297 16.8176C36.4805 16.9755 36.7612 17.2123 36.9716 17.528C37.1821 17.8437 37.3312 18.2209 37.4189 18.6594ZM32.3935 25.1582C32.0252 24.9127 31.841 24.5618 31.841 24.1058C31.841 23.6673 32.0427 23.2726 32.4461 22.9218C32.8496 22.5534 33.5424 22.3692 34.5247 22.3692C35.4017 22.3692 36.1034 22.5183 36.6296 22.8165C37.1734 23.0972 37.4452 23.4217 37.4452 23.79C37.4452 23.9479 37.3839 24.1321 37.2611 24.3426C37.1558 24.5355 36.9716 24.7197 36.7085 24.8951C36.463 25.053 36.1297 25.1933 35.7087 25.3161C35.3053 25.4389 34.8054 25.5003 34.209 25.5003C33.3846 25.5003 32.7794 25.3863 32.3935 25.1582ZM48.2739 25.0004H46.8794V16.4492C46.8794 16.1686 46.8268 15.9493 46.7216 15.7915C46.6163 15.6161 46.4321 15.5284 46.169 15.5284C45.8708 15.5284 45.4762 15.5371 44.985 15.5547C44.4939 15.5722 43.994 15.5985 43.4853 15.6336C42.696 15.6862 42.1434 15.7739 41.8277 15.8967C41.5295 16.0195 41.3804 16.2563 41.3804 16.6071C41.3804 16.8527 41.4418 17.0632 41.5646 17.2386C41.6874 17.3964 41.8979 17.4754 42.196 17.4754H42.5381C42.7135 17.4578 42.8977 17.4491 43.0906 17.4491H43.6432C43.8186 17.4315 43.9326 17.4228 43.9852 17.4228C44.1782 17.4228 44.3009 17.5105 44.3536 17.6859C44.4237 17.8437 44.4676 18.0455 44.4851 18.291C44.5202 18.8699 44.5465 19.3873 44.564 19.8434C44.5816 20.2819 44.5904 20.7993 44.5904 21.3957C44.5904 21.5361 44.5816 21.7378 44.564 22.0009C44.564 22.264 44.5553 22.5534 44.5377 22.8692C44.5377 23.1673 44.529 23.4655 44.5114 23.7637C44.5114 24.0619 44.5027 24.3075 44.4851 24.5004C44.4676 24.6934 44.3536 24.8249 44.1431 24.8951C43.9501 24.9653 43.7133 25.0179 43.4327 25.053C42.9766 25.0881 42.617 25.1845 42.3539 25.3424C42.0908 25.4827 41.9592 25.7195 41.9592 26.0528C41.9592 26.2808 42.0119 26.4562 42.1171 26.579C42.2399 26.7018 42.3802 26.7983 42.5381 26.8684C42.7135 26.9211 42.9064 26.9561 43.1169 26.9737C43.345 26.9912 43.5642 27 43.7747 27H48.7475C48.9755 27 49.1597 26.9123 49.3 26.7369C49.4579 26.5439 49.5368 26.3071 49.5368 26.0265C49.5368 25.6231 49.4228 25.3512 49.1948 25.2108C48.9668 25.0705 48.6598 25.0004 48.2739 25.0004ZM43.8536 11.187C43.7835 11.3975 43.7484 11.5817 43.7484 11.7396C43.7484 12.2658 43.8975 12.7131 44.1957 13.0814C44.5114 13.4322 44.8973 13.6076 45.3534 13.6076C45.5288 13.6076 45.7217 13.5726 45.9322 13.5024C46.1427 13.4322 46.3357 13.3182 46.5111 13.1604C46.704 13.0025 46.8531 12.8008 46.9584 12.5552C47.0811 12.3096 47.1425 12.0027 47.1425 11.6343C47.1425 11.0905 46.9847 10.6696 46.6689 10.3714C46.3532 10.0556 45.9761 9.89778 45.5376 9.89778C45.2218 9.89778 44.9499 9.96794 44.7219 10.1083C44.4939 10.2311 44.3097 10.3889 44.1694 10.5819C44.0291 10.7748 43.9238 10.9765 43.8536 11.187ZM64.6569 25.7634H63.2361V20.1591C63.2361 19.054 63.0958 18.1682 62.8151 17.5017C62.5345 16.8351 62.1924 16.3177 61.789 15.9493C61.3855 15.581 60.9558 15.3354 60.4997 15.2126C60.0437 15.0898 59.6402 15.0284 59.2894 15.0284C58.8685 15.0284 58.4387 15.0898 58.0002 15.2126C57.5792 15.3179 57.1758 15.4845 56.7899 15.7125C56.4215 15.923 56.0795 16.1861 55.7637 16.5019C55.4655 16.8176 55.2287 17.186 55.0533 17.6069L54.9744 16.0809C54.9569 15.6775 54.8692 15.4231 54.7113 15.3179C54.571 15.1951 54.2289 15.1337 53.6852 15.1337C52.6678 15.1337 51.8609 15.16 51.2645 15.2126C50.6682 15.2477 50.2121 15.3091 49.8964 15.3968C49.5982 15.4845 49.4052 15.5985 49.3175 15.7388C49.2298 15.8616 49.186 16.0107 49.186 16.1861C49.186 16.5019 49.3438 16.7211 49.6596 16.8439C49.9928 16.9492 50.4664 17.0018 51.0804 17.0018H52.1328C52.4485 17.0018 52.6064 17.3526 52.6064 18.0542C52.6064 18.177 52.5976 18.5103 52.5801 19.054C52.5626 19.5803 52.545 20.1503 52.5275 20.7643C52.5275 21.3607 52.5187 21.9132 52.5012 22.4219C52.4836 22.913 52.4748 23.1849 52.4748 23.2375C52.4748 23.2726 52.4661 23.3691 52.4485 23.5269C52.4485 23.6848 52.4222 23.8514 52.3696 24.0268C52.3345 24.1847 52.2644 24.3338 52.1591 24.4741C52.0539 24.5969 51.9135 24.6583 51.7381 24.6583H51.4487C51.3786 24.6583 51.2909 24.6759 51.1856 24.7109C51.0804 24.7285 50.9751 24.7723 50.8699 24.8425C50.7646 24.9127 50.6769 25.0179 50.6068 25.1582C50.5366 25.281 50.5015 25.4476 50.5015 25.6581C50.5015 25.8862 50.5454 26.0703 50.6331 26.2107C50.7383 26.3335 50.8523 26.4299 50.9751 26.5001C51.1154 26.5527 51.2645 26.5878 51.4224 26.6053C51.5803 26.6229 51.7294 26.6316 51.8697 26.6316H52.3433H53.2116H54.3166C54.7025 26.6141 55.0621 26.6053 55.3954 26.6053H56.2637H56.6846C57.0705 26.6053 57.3512 26.5176 57.5266 26.3422C57.7195 26.1493 57.816 25.9037 57.816 25.6055C57.816 25.1495 57.702 24.8688 57.474 24.7636C57.2635 24.6408 57.0004 24.5794 56.6846 24.5794H54.9218V22.1061C54.9218 21.8606 54.9481 21.5975 55.0007 21.3168C55.0533 21.0186 55.106 20.7467 55.1586 20.5012C55.2287 20.2556 55.2901 20.0451 55.3428 19.8697C55.4129 19.6943 55.4568 19.589 55.4743 19.554C55.5796 19.2908 55.7199 19.019 55.8953 18.7383C56.0707 18.4401 56.2812 18.1682 56.5268 17.9227C56.7723 17.6771 57.053 17.4754 57.3687 17.3175C57.702 17.1596 58.0616 17.0807 58.4475 17.0807C58.9386 17.0807 59.3421 17.2386 59.6578 17.5543C59.9735 17.8525 60.2191 18.2735 60.3945 18.8172C60.5699 19.361 60.6839 20.01 60.7365 20.7643C60.8067 21.5185 60.8418 22.3429 60.8418 23.2375C60.8418 23.5708 60.833 23.8427 60.8155 24.0532C60.8155 24.2636 60.8067 24.4917 60.7892 24.7372C60.7716 25.0705 60.7278 25.3249 60.6576 25.5003C60.5874 25.6757 60.4296 25.7897 60.184 25.8423C59.9384 25.8949 59.7367 26.0002 59.5788 26.158C59.4385 26.2984 59.3684 26.5176 59.3684 26.8158C59.3684 27.1666 59.4824 27.421 59.7104 27.5788C59.9384 27.7367 60.1665 27.8156 60.3945 27.8156H60.7892C61.0347 27.8156 61.3154 27.8069 61.6311 27.7893H62.6572C63.0256 27.7893 63.3677 27.7806 63.6834 27.763H64.5253H64.9726C65.341 27.763 65.6567 27.6841 65.9198 27.5262C66.1829 27.3859 66.3145 27.1403 66.3145 26.7895C66.3145 26.579 66.2619 26.4036 66.1566 26.2633C66.0514 26.123 65.9198 26.0177 65.762 25.9476C65.6041 25.8774 65.4199 25.8335 65.2094 25.816C65.0165 25.7809 64.8323 25.7634 64.6569 25.7634ZM67.3932 16.7124C67.8142 16.6948 68.1914 16.686 68.5246 16.686L68.472 22.6587V23.4743C68.4895 23.7725 68.5246 24.0795 68.5772 24.3952C68.6299 24.7109 68.7 25.0267 68.7877 25.3424C68.893 25.6581 69.0333 25.9476 69.2087 26.2107C69.6823 26.9298 70.4716 27.2894 71.5767 27.2894C72.1731 27.2894 72.6906 27.2017 73.1291 27.0263C73.5851 26.8509 73.9623 26.6141 74.2605 26.3159C74.5762 26.0177 74.8042 25.6757 74.9445 25.2898C75.1024 24.8863 75.1813 24.4566 75.1813 24.0005C75.1813 23.7023 75.1112 23.4743 74.9708 23.3164C74.8481 23.141 74.6288 23.0533 74.3131 23.0533C74.0149 23.0533 73.7868 23.106 73.629 23.2112C73.4711 23.3164 73.3571 23.5182 73.2869 23.8164C73.1466 24.3777 72.9975 24.7548 72.8397 24.9477C72.6818 25.1407 72.4099 25.2372 72.024 25.2372C71.6381 25.2372 71.3575 25.0881 71.1821 24.7899C71.0066 24.4741 70.9189 23.8777 70.9189 23.0007V16.6334C71.4276 16.5983 71.9626 16.5633 72.5239 16.5282C73.0852 16.4931 73.6378 16.458 74.1815 16.4229C74.3569 16.4054 74.5499 16.3265 74.7604 16.1861C74.9708 16.0283 75.0761 15.7827 75.0761 15.4494C75.0761 15.0811 74.9358 14.818 74.6551 14.6601C74.392 14.5022 74.1552 14.4233 73.9447 14.4233C73.857 14.4233 73.6641 14.4321 73.3659 14.4496C73.0852 14.4496 72.7783 14.4584 72.445 14.4759C72.1117 14.4935 71.796 14.511 71.4978 14.5285H70.9189V11.8711C70.9189 11.3449 70.7962 11.0116 70.5506 10.8713C70.3226 10.731 70.0682 10.6608 69.7876 10.6608C69.3666 10.6608 69.0596 10.9327 68.8667 11.4764C68.7614 11.7571 68.6913 12.1167 68.6562 12.5552C68.6386 12.9937 68.6123 13.4235 68.5772 13.8444C68.5597 14.1076 68.4808 14.2917 68.3404 14.397C68.2177 14.4847 68.0247 14.5461 67.7616 14.5812L66.4197 14.7653C66.1566 14.8004 65.9111 14.8793 65.683 15.0021C65.455 15.1249 65.341 15.3529 65.341 15.6862C65.341 16.1247 65.4462 16.4142 65.6567 16.5545C65.8497 16.6773 66.0602 16.7387 66.2882 16.7387C66.6039 16.7387 66.9723 16.7299 67.3932 16.7124ZM82.3961 25.0004H81.0016V16.4492C81.0016 16.1686 80.949 15.9493 80.8438 15.7915C80.7385 15.6161 80.5544 15.5284 80.2912 15.5284C79.993 15.5284 79.5984 15.5371 79.1072 15.5547C78.6161 15.5722 78.1162 15.5985 77.6075 15.6336C76.8182 15.6862 76.2656 15.7739 75.9499 15.8967C75.6517 16.0195 75.5026 16.2563 75.5026 16.6071C75.5026 16.8527 75.564 17.0632 75.6868 17.2386C75.8096 17.3964 76.0201 17.4754 76.3183 17.4754H76.6603C76.8357 17.4578 77.0199 17.4491 77.2128 17.4491H77.7654C77.9408 17.4315 78.0548 17.4228 78.1074 17.4228C78.3004 17.4228 78.4231 17.5105 78.4758 17.6859C78.5459 17.8437 78.5898 18.0455 78.6073 18.291C78.6424 18.8699 78.6687 19.3873 78.6863 19.8434C78.7038 20.2819 78.7126 20.7993 78.7126 21.3957C78.7126 21.5361 78.7038 21.7378 78.6863 22.0009C78.6863 22.264 78.6775 22.5534 78.66 22.8692C78.66 23.1673 78.6512 23.4655 78.6336 23.7637C78.6336 24.0619 78.6249 24.3075 78.6073 24.5004C78.5898 24.6934 78.4758 24.8249 78.2653 24.8951C78.0723 24.9653 77.8355 25.0179 77.5549 25.053C77.0988 25.0881 76.7392 25.1845 76.4761 25.3424C76.213 25.4827 76.0815 25.7195 76.0815 26.0528C76.0815 26.2808 76.1341 26.4562 76.2393 26.579C76.3621 26.7018 76.5024 26.7983 76.6603 26.8684C76.8357 26.9211 77.0287 26.9561 77.2392 26.9737C77.4672 26.9912 77.6864 27 77.8969 27H82.8697C83.0978 27 83.2819 26.9123 83.4223 26.7369C83.5801 26.5439 83.6591 26.3071 83.6591 26.0265C83.6591 25.6231 83.5451 25.3512 83.317 25.2108C83.089 25.0705 82.782 25.0004 82.3961 25.0004ZM77.9759 11.187C77.9057 11.3975 77.8706 11.5817 77.8706 11.7396C77.8706 12.2658 78.0197 12.7131 78.3179 13.0814C78.6336 13.4322 79.0195 13.6076 79.4756 13.6076C79.651 13.6076 79.844 13.5726 80.0544 13.5024C80.2649 13.4322 80.4579 13.3182 80.6333 13.1604C80.8262 13.0025 80.9753 12.8008 81.0806 12.5552C81.2034 12.3096 81.2648 12.0027 81.2648 11.6343C81.2648 11.0905 81.1069 10.6696 80.7912 10.3714C80.4754 10.0556 80.0983 9.89778 79.6598 9.89778C79.344 9.89778 79.0722 9.96794 78.8441 10.1083C78.6161 10.2311 78.4319 10.3889 78.2916 10.5819C78.1513 10.7748 78.046 10.9765 77.9759 11.187ZM98.7791 25.7634H97.3583V20.1591C97.3583 19.054 97.218 18.1682 96.9373 17.5017C96.6567 16.8351 96.3146 16.3177 95.9112 15.9493C95.5078 15.581 95.078 15.3354 94.622 15.2126C94.1659 15.0898 93.7625 15.0284 93.4117 15.0284C92.9907 15.0284 92.5609 15.0898 92.1224 15.2126C91.7014 15.3179 91.298 15.4845 90.9121 15.7125C90.5437 15.923 90.2017 16.1861 89.886 16.5019C89.5878 16.8176 89.351 17.186 89.1756 17.6069L89.0966 16.0809C89.0791 15.6775 88.9914 15.4231 88.8335 15.3179C88.6932 15.1951 88.3512 15.1337 87.8074 15.1337C86.79 15.1337 85.9831 15.16 85.3868 15.2126C84.7904 15.2477 84.3343 15.3091 84.0186 15.3968C83.7204 15.4845 83.5274 15.5985 83.4397 15.7388C83.352 15.8616 83.3082 16.0107 83.3082 16.1861C83.3082 16.5019 83.466 16.7211 83.7818 16.8439C84.1151 16.9492 84.5887 17.0018 85.2026 17.0018H86.255C86.5708 17.0018 86.7286 17.3526 86.7286 18.0542C86.7286 18.177 86.7199 18.5103 86.7023 19.054C86.6848 19.5803 86.6672 20.1503 86.6497 20.7643C86.6497 21.3607 86.6409 21.9132 86.6234 22.4219C86.6058 22.913 86.5971 23.1849 86.5971 23.2375C86.5971 23.2726 86.5883 23.3691 86.5708 23.5269C86.5708 23.6848 86.5444 23.8514 86.4918 24.0268C86.4567 24.1847 86.3866 24.3338 86.2813 24.4741C86.1761 24.5969 86.0358 24.6583 85.8604 24.6583H85.5709C85.5008 24.6583 85.4131 24.6759 85.3078 24.7109C85.2026 24.7285 85.0973 24.7723 84.9921 24.8425C84.8868 24.9127 84.7991 25.0179 84.729 25.1582C84.6588 25.281 84.6237 25.4476 84.6237 25.6581C84.6237 25.8862 84.6676 26.0703 84.7553 26.2107C84.8605 26.3335 84.9746 26.4299 85.0973 26.5001C85.2377 26.5527 85.3868 26.5878 85.5446 26.6053C85.7025 26.6229 85.8516 26.6316 85.9919 26.6316H86.4655H87.3338H88.4389C88.8247 26.6141 89.1843 26.6053 89.5176 26.6053H90.3859H90.8069C91.1927 26.6053 91.4734 26.5176 91.6488 26.3422C91.8418 26.1493 91.9382 25.9037 91.9382 25.6055C91.9382 25.1495 91.8242 24.8688 91.5962 24.7636C91.3857 24.6408 91.1226 24.5794 90.8069 24.5794H89.044V22.1061C89.044 21.8606 89.0703 21.5975 89.1229 21.3168C89.1756 21.0186 89.2282 20.7467 89.2808 20.5012C89.351 20.2556 89.4124 20.0451 89.465 19.8697C89.5351 19.6943 89.579 19.589 89.5965 19.554C89.7018 19.2908 89.8421 19.019 90.0175 18.7383C90.1929 18.4401 90.4034 18.1682 90.649 17.9227C90.8946 17.6771 91.1752 17.4754 91.4909 17.3175C91.8242 17.1596 92.1838 17.0807 92.5697 17.0807C93.0608 17.0807 93.4643 17.2386 93.78 17.5543C94.0957 17.8525 94.3413 18.2735 94.5167 18.8172C94.6921 19.361 94.8061 20.01 94.8588 20.7643C94.9289 21.5185 94.964 22.3429 94.964 23.2375C94.964 23.5708 94.9552 23.8427 94.9377 24.0532C94.9377 24.2636 94.9289 24.4917 94.9114 24.7372C94.8938 25.0705 94.85 25.3249 94.7798 25.5003C94.7097 25.6757 94.5518 25.7897 94.3062 25.8423C94.0607 25.8949 93.8589 26.0002 93.7011 26.158C93.5607 26.2984 93.4906 26.5176 93.4906 26.8158C93.4906 27.1666 93.6046 27.421 93.8326 27.5788C94.0607 27.7367 94.2887 27.8156 94.5167 27.8156H94.9114C95.157 27.8156 95.4376 27.8069 95.7533 27.7893H96.7795C97.1478 27.7893 97.4899 27.7806 97.8056 27.763H98.6476H99.0949C99.4632 27.763 99.7789 27.6841 100.042 27.5262C100.305 27.3859 100.437 27.1403 100.437 26.7895C100.437 26.579 100.384 26.4036 100.279 26.2633C100.174 26.123 100.042 26.0177 99.8842 25.9476C99.7263 25.8774 99.5421 25.8335 99.3316 25.816C99.1387 25.7809 98.9545 25.7634 98.7791 25.7634ZM107.409 14.9495C107.129 14.9144 106.83 14.8969 106.515 14.8969C105.638 14.8969 104.875 15.0109 104.226 15.2389C103.577 15.4494 103.033 15.7476 102.594 16.1335C102.173 16.5194 101.858 16.9842 101.647 17.528C101.437 18.0542 101.331 18.6243 101.331 19.2382C101.331 19.9223 101.463 20.5713 101.726 21.1852C102.007 21.7992 102.428 22.2903 102.989 22.6587C102.445 22.9042 102.033 23.1761 101.752 23.4743C101.489 23.755 101.358 24.1496 101.358 24.6583C101.358 25.3424 101.568 25.8423 101.989 26.158C102.428 26.4738 102.989 26.693 103.673 26.8158C102.656 27.0088 101.901 27.3684 101.41 27.8946C100.937 28.4208 100.7 29.0786 100.7 29.8679C100.7 30.4994 100.849 31.0431 101.147 31.4992C101.463 31.9728 101.91 32.3587 102.489 32.6569C103.068 32.9726 103.761 33.2007 104.568 33.341C105.392 33.4988 106.313 33.5778 107.33 33.5778C108.418 33.5778 109.418 33.4813 110.33 33.2884C111.259 33.0954 112.057 32.806 112.724 32.4201C113.408 32.0342 113.943 31.5518 114.329 30.973C114.715 30.4117 114.908 29.7539 114.908 28.9996C114.908 28.3506 114.768 27.7981 114.487 27.342C114.224 26.9035 113.873 26.5439 113.434 26.2633C112.996 25.9651 112.496 25.7371 111.935 25.5792C111.391 25.4038 110.838 25.281 110.277 25.2108C109.716 25.1231 109.172 25.0705 108.646 25.053C108.12 25.0354 107.672 25.0267 107.304 25.0267C106.076 25.0091 105.181 24.9477 104.62 24.8425C104.076 24.7197 103.805 24.5618 103.805 24.3689C103.805 24.2286 103.936 24.0532 104.199 23.8427C104.48 23.6146 104.787 23.448 105.12 23.3428C105.313 23.3778 105.462 23.4041 105.567 23.4217H106.015C107.821 23.4217 109.207 23.027 110.172 22.2377C111.137 21.4484 111.619 20.3959 111.619 19.0804C111.619 18.3787 111.461 17.7297 111.145 17.1333C110.847 16.5369 110.374 16.0458 109.725 15.6599C109.935 15.5371 110.154 15.4407 110.382 15.3705C110.61 15.3003 110.83 15.2477 111.04 15.2126C111.268 15.1775 111.47 15.1512 111.645 15.1337C111.838 15.0986 111.987 15.0635 112.093 15.0284C112.233 14.9934 112.347 14.9232 112.435 14.818C112.522 14.7127 112.566 14.5373 112.566 14.2917C112.566 13.8532 112.435 13.5463 112.171 13.3708C111.926 13.1954 111.645 13.1077 111.33 13.1077C110.786 13.1077 110.224 13.3007 109.646 13.6866C109.084 14.0725 108.602 14.5373 108.198 15.0811C107.953 15.0284 107.69 14.9846 107.409 14.9495ZM106.225 27.2631C106.804 27.1403 107.383 27.0789 107.962 27.0789C108.523 27.0789 109.067 27.114 109.593 27.1842C110.137 27.2719 110.619 27.4034 111.04 27.5788C111.461 27.7543 111.794 27.9911 112.04 28.2892C112.303 28.5874 112.435 28.9558 112.435 29.3943C112.435 29.7802 112.321 30.1047 112.093 30.3678C111.865 30.6485 111.549 30.8765 111.145 31.0519C110.742 31.2449 110.26 31.3852 109.698 31.4729C109.137 31.5606 108.523 31.6044 107.856 31.6044C107.295 31.6044 106.734 31.5694 106.173 31.4992C105.611 31.429 105.103 31.315 104.646 31.1572C104.19 30.9993 103.813 30.7976 103.515 30.552C103.234 30.3064 103.094 29.9995 103.094 29.6311C103.094 29.2628 103.234 28.9207 103.515 28.605C103.813 28.3068 104.19 28.0437 104.646 27.8156C105.12 27.5876 105.646 27.4034 106.225 27.2631ZM104.489 17.5017C104.962 17.0632 105.638 16.8439 106.515 16.8439C107.427 16.8439 108.093 17.0632 108.514 17.5017C108.935 17.9402 109.146 18.4664 109.146 19.0804C109.146 19.7469 108.909 20.317 108.435 20.7906C107.979 21.2642 107.33 21.501 106.488 21.501C106.067 21.501 105.69 21.4396 105.357 21.3168C105.024 21.1765 104.743 21.0011 104.515 20.7906C104.287 20.5625 104.112 20.317 103.989 20.0539C103.866 19.7732 103.805 19.4926 103.805 19.2119C103.805 18.4927 104.033 17.9227 104.489 17.5017ZM116.372 26.7632C116.372 26.658 116.363 26.5352 116.346 26.3948C116.854 26.9561 117.398 27.3157 117.977 27.4736C118.556 27.6315 119.143 27.7104 119.74 27.7104C120.336 27.7104 120.906 27.649 121.45 27.5262C122.011 27.4034 122.502 27.2017 122.923 26.9211C123.344 26.6404 123.678 26.2896 123.923 25.8686C124.186 25.4476 124.318 24.9302 124.318 24.3163C124.318 23.6497 124.16 23.1147 123.844 22.7113C123.546 22.2903 123.151 21.9483 122.66 21.6852C122.169 21.422 121.625 21.2116 121.029 21.0537C120.45 20.8958 119.889 20.738 119.345 20.5801C119.117 20.5099 118.872 20.431 118.608 20.3433C118.345 20.238 118.1 20.1065 117.872 19.9486C117.661 19.7732 117.486 19.5715 117.346 19.3435C117.205 19.0979 117.135 18.7997 117.135 18.4489C117.135 18.0104 117.284 17.642 117.582 17.3438C117.881 17.0456 118.415 16.8965 119.187 16.8965C119.906 16.8965 120.441 17.0193 120.792 17.2649C121.143 17.5105 121.397 17.756 121.555 18.0016C121.696 18.1945 121.827 18.4401 121.95 18.7383C122.09 19.019 122.196 19.3172 122.266 19.6329C122.301 19.8258 122.406 20.01 122.581 20.1854C122.774 20.3433 122.985 20.4222 123.213 20.4222C123.511 20.4222 123.713 20.3257 123.818 20.1328C123.941 19.9399 124.02 19.6943 124.055 19.3961C124.072 19.2733 124.09 19.0804 124.107 18.8172C124.125 18.5366 124.143 18.2296 124.16 17.8964C124.178 17.5631 124.186 17.221 124.186 16.8702C124.204 16.5194 124.213 16.1949 124.213 15.8967C124.213 15.2828 124.125 14.8969 123.95 14.739C123.774 14.5812 123.546 14.5022 123.266 14.5022C123.02 14.5022 122.783 14.5636 122.555 14.6864C122.327 14.8092 122.213 15.0898 122.213 15.5284V15.9756C122.231 16.2212 122.248 16.458 122.266 16.686C122.16 16.5106 122.029 16.3265 121.871 16.1335C121.713 15.923 121.503 15.7301 121.24 15.5547C120.994 15.3793 120.687 15.2389 120.319 15.1337C119.95 15.0284 119.503 14.9758 118.977 14.9758C118.451 14.9758 117.942 15.046 117.451 15.1863C116.96 15.3091 116.521 15.5196 116.135 15.8178C115.749 16.0984 115.434 16.4668 115.188 16.9228C114.96 17.3789 114.846 17.9314 114.846 18.5804C114.846 19.3172 114.986 19.9223 115.267 20.3959C115.548 20.8695 115.898 21.2642 116.319 21.5799C116.74 21.8781 117.205 22.1149 117.714 22.2903C118.223 22.4482 118.705 22.5797 119.161 22.685C119.775 22.8428 120.266 23.0007 120.634 23.1586C121.003 23.3164 121.283 23.4831 121.476 23.6585C121.669 23.8164 121.792 23.9742 121.845 24.1321C121.915 24.29 121.95 24.4478 121.95 24.6057C121.95 25.0617 121.731 25.3863 121.292 25.5792C120.871 25.7546 120.371 25.8423 119.792 25.8423C119.021 25.8423 118.398 25.7283 117.924 25.5003C117.451 25.2547 117.1 24.9565 116.872 24.6057C116.626 24.2023 116.468 23.869 116.398 23.6059C116.328 23.3428 116.276 23.1235 116.24 22.9481C116.205 22.7727 116.109 22.6148 115.951 22.4745C115.811 22.3166 115.644 22.2377 115.451 22.2377C114.749 22.2377 114.399 22.5271 114.399 23.106C114.399 23.5269 114.416 23.9128 114.451 24.2636C114.486 24.6145 114.504 24.9653 114.504 25.3161C114.504 25.5617 114.495 25.8072 114.478 26.0528C114.46 26.2984 114.451 26.579 114.451 26.8948C114.451 27.1403 114.504 27.3508 114.609 27.5262C114.714 27.7016 114.969 27.7893 115.372 27.7893C115.688 27.7893 115.933 27.7104 116.109 27.5525C116.284 27.4122 116.372 27.2543 116.372 27.0789V26.7632Z" fill="black"/>
</svg>
