<svg width="100" height="46" viewBox="0 0 100 46" fill="none" xmlns="http://www.w3.org/2000/svg">
<rect width="100" height="46" fill="white"/>
<path fill-rule="evenodd" clip-rule="evenodd" d="M28.3616 12H9V34.0322H28.3616V12ZM15.799 29.0705C15.6117 29.1876 15.3599 29.2579 15.0437 29.2813C14.6338 29.3164 14.3586 29.375 14.2181 29.457C14.0892 29.5389 14.0248 29.656 14.0248 29.8083C14.0248 30.0308 14.1068 30.1772 14.2708 30.2475C14.4464 30.306 14.7216 30.3353 15.0964 30.3353H19.5407C19.8686 30.3353 20.0794 30.2826 20.1731 30.1772C20.2785 30.0718 20.3312 29.9371 20.3312 29.7732C20.3312 29.5741 20.2668 29.4335 20.1379 29.3516C20.0208 29.2696 19.8335 29.2286 19.5758 29.2286H17.7313V24.5032C17.989 24.5149 18.2056 24.5267 18.3813 24.5384H18.9259C19.57 24.5384 20.2375 24.4622 20.9284 24.31C21.6311 24.146 22.2693 23.8826 22.8432 23.5195C23.4287 23.1565 23.9089 22.6822 24.2836 22.0966C24.6584 21.4994 24.8457 20.7616 24.8457 19.8833C24.8457 19.1572 24.7111 18.5424 24.4417 18.0388C24.1841 17.5352 23.821 17.1253 23.3526 16.8091C22.8959 16.4929 22.3572 16.2646 21.7365 16.124C21.1158 15.9835 20.4483 15.9132 19.7339 15.9132C19.2421 15.9132 18.7853 15.9191 18.3637 15.9308C17.9539 15.9308 17.5498 15.9367 17.1517 15.9484C16.7652 15.9484 16.3787 15.9542 15.9923 15.9659H14.7802C14.3352 15.9659 14.1127 16.1475 14.1127 16.5105C14.1127 16.6745 14.1478 16.8091 14.2181 16.9145C14.2883 17.0082 14.3879 17.0609 14.5167 17.0726L15.4301 17.1429C15.6527 17.1663 15.799 17.2366 15.8693 17.3537C15.9396 17.4708 15.9806 17.6289 15.9923 17.828C16.0157 18.3901 16.0391 19.0869 16.0625 19.9184C16.086 20.7382 16.0977 21.6516 16.0977 22.6588V24.3276C16.0977 24.7726 16.0918 25.2 16.0801 25.6099V26.8747V28.4732C16.0801 28.7543 15.9864 28.9534 15.799 29.0705ZM18.3462 17.3537C18.557 17.3303 18.7736 17.3186 18.9961 17.3186C19.324 17.3186 19.7222 17.3361 20.1906 17.3713C20.6708 17.4064 21.1275 17.5118 21.5608 17.6875C22.0058 17.8514 22.3806 18.1091 22.6851 18.4604C23.0013 18.8117 23.1594 19.3036 23.1594 19.936C23.1594 20.4161 23.0598 20.8494 22.8607 21.2359C22.6617 21.6223 22.3806 21.9561 22.0176 22.2372C21.6545 22.5065 21.2154 22.7173 20.7001 22.8696C20.1848 23.0218 19.611 23.0979 18.9786 23.0979H18.3462C18.1237 23.0862 17.9187 23.0745 17.7313 23.0628V17.4415C17.9304 17.4064 18.1354 17.3771 18.3462 17.3537ZM33.9825 24.7667C34.041 25.0595 34.0703 25.3874 34.0703 25.7504V26.7693C33.7073 26.5468 33.3442 26.3887 32.9812 26.295C32.6182 26.2013 32.2258 26.1545 31.8042 26.1545C30.8088 26.1545 30.03 26.377 29.4679 26.822C28.9175 27.2553 28.6423 27.8057 28.6423 28.4732C28.6423 29.1056 28.8824 29.6092 29.3625 29.984C29.8544 30.347 30.5102 30.5285 31.33 30.5285C31.8804 30.5285 32.3839 30.4407 32.8407 30.265C33.3091 30.0894 33.7307 29.8317 34.1054 29.4921C34.2226 29.902 34.4041 30.1772 34.65 30.3177C34.9076 30.4583 35.1887 30.5285 35.4932 30.5285C35.9148 30.5285 36.2661 30.4173 36.5472 30.1948C36.8282 29.9605 36.9688 29.6034 36.9688 29.1232C36.9688 28.8538 36.9161 28.6723 36.8107 28.5786C36.717 28.485 36.5823 28.4381 36.4067 28.4381C36.1724 28.4381 36.0319 28.4908 35.9851 28.5962C35.9382 28.7016 35.9089 28.8187 35.8972 28.9475C35.8972 29.0061 35.8855 29.0588 35.8621 29.1056C35.8387 29.1408 35.7977 29.1583 35.7391 29.1583C35.6572 29.1583 35.6103 29.0998 35.5986 28.9827C35.5869 28.8656 35.581 28.5904 35.581 28.157V27.5598L35.6162 26.8571C35.6279 26.6112 35.6337 26.377 35.6337 26.1545C35.6454 25.932 35.6513 25.7504 35.6513 25.6099C35.6513 24.5091 35.3878 23.66 34.8608 23.0628C34.3338 22.4655 33.5023 22.1669 32.3664 22.1669C31.8745 22.1669 31.4236 22.2255 31.0138 22.3426C30.6156 22.4597 30.2701 22.6178 29.9773 22.8169C29.6963 23.0159 29.4738 23.256 29.3098 23.5371C29.1576 23.8181 29.0814 24.1226 29.0814 24.4505C29.0814 24.5911 29.0932 24.7316 29.1166 24.8721C29.1517 25.0127 29.2103 25.1473 29.2922 25.2762C29.3742 25.3933 29.4796 25.4928 29.6084 25.5748C29.749 25.6451 29.9188 25.6802 30.1179 25.6802C30.317 25.6802 30.5102 25.6333 30.6976 25.5397C30.8849 25.446 30.9786 25.2703 30.9786 25.0127C30.9786 24.7433 30.8615 24.5559 30.6273 24.4505C30.6039 24.4388 30.5629 24.4213 30.5043 24.3978C30.4575 24.3627 30.4341 24.2983 30.4341 24.2046C30.4341 24.0992 30.4809 23.9938 30.5746 23.8884C30.68 23.783 30.8147 23.6952 30.9786 23.6249C31.1426 23.5429 31.33 23.4785 31.5408 23.4317C31.7633 23.3848 31.9916 23.3614 32.2258 23.3614C32.5889 23.3614 32.8875 23.42 33.1217 23.5371C33.3559 23.6425 33.5433 23.8006 33.6839 24.0114C33.8244 24.2222 33.9239 24.474 33.9825 24.7667ZM30.6273 29.1056C30.3814 28.9417 30.2584 28.7075 30.2584 28.403C30.2584 28.1102 30.3931 27.8467 30.6624 27.6125C30.9318 27.3666 31.3944 27.2436 32.0502 27.2436C32.6357 27.2436 33.1042 27.3431 33.4555 27.5422C33.8185 27.7296 34 27.9463 34 28.1922C34 28.2976 33.9591 28.4205 33.8771 28.5611C33.8068 28.6899 33.6839 28.8129 33.5082 28.93C33.3442 29.0354 33.1217 29.1291 32.8407 29.211C32.5713 29.293 32.2376 29.334 31.8394 29.334C31.289 29.334 30.8849 29.2579 30.6273 29.1056ZM41.2297 29.0002H40.2987V23.2911C40.2987 23.1038 40.2636 22.9574 40.1933 22.852C40.123 22.7349 40.0001 22.6763 39.8244 22.6763C39.6253 22.6763 39.3618 22.6822 39.0339 22.6939C38.706 22.7056 38.3723 22.7232 38.0326 22.7466C37.5056 22.7817 37.1368 22.8403 36.926 22.9223C36.7269 23.0042 36.6273 23.1623 36.6273 23.3965C36.6273 23.5605 36.6683 23.701 36.7503 23.8181C36.8323 23.9235 36.9728 23.9762 37.1719 23.9762H37.4003C37.5174 23.9645 37.6403 23.9587 37.7691 23.9587H38.138C38.2551 23.947 38.3313 23.9411 38.3664 23.9411C38.4952 23.9411 38.5772 23.9997 38.6123 24.1168C38.6592 24.2222 38.6885 24.3568 38.7002 24.5208C38.7236 24.9073 38.7412 25.2527 38.7529 25.5572C38.7646 25.85 38.7704 26.1955 38.7704 26.5936C38.7704 26.6873 38.7646 26.822 38.7529 26.9977C38.7529 27.1733 38.747 27.3666 38.7353 27.5774C38.7353 27.7764 38.7294 27.9755 38.7177 28.1746C38.7177 28.3737 38.7119 28.5377 38.7002 28.6665C38.6885 28.7953 38.6123 28.8831 38.4718 28.93C38.343 28.9768 38.1849 29.0119 37.9975 29.0354C37.693 29.0588 37.4529 29.1232 37.2773 29.2286C37.1016 29.3223 37.0138 29.4804 37.0138 29.7029C37.0138 29.8551 37.0489 29.9722 37.1192 30.0542C37.2012 30.1362 37.2949 30.2006 37.4003 30.2475C37.5174 30.2826 37.6462 30.306 37.7867 30.3177C37.939 30.3294 38.0853 30.3353 38.2259 30.3353H41.5459C41.6982 30.3353 41.8211 30.2767 41.9148 30.1596C42.0202 30.0308 42.0729 29.8727 42.0729 29.6853C42.0729 29.416 41.9968 29.2345 41.8446 29.1408C41.6923 29.0471 41.4874 29.0002 41.2297 29.0002ZM38.2786 19.7779C38.2317 19.9184 38.2083 20.0414 38.2083 20.1468C38.2083 20.4981 38.3078 20.7967 38.5069 21.0426C38.7177 21.2769 38.9754 21.394 39.2799 21.394C39.397 21.394 39.5258 21.3706 39.6663 21.3237C39.8069 21.2769 39.9357 21.2007 40.0528 21.0953C40.1816 20.9899 40.2811 20.8553 40.3514 20.6913C40.4334 20.5274 40.4744 20.3224 40.4744 20.0765C40.4744 19.7135 40.369 19.4324 40.1582 19.2333C39.9474 19.0225 39.6956 18.9171 39.4028 18.9171C39.192 18.9171 39.0105 18.964 38.8583 19.0576C38.706 19.1396 38.5831 19.245 38.4894 19.3738C38.3957 19.5027 38.3254 19.6373 38.2786 19.7779ZM52.1677 29.5097H51.2191V25.768C51.2191 25.0302 51.1254 24.4388 50.9381 23.9938C50.7507 23.5488 50.5223 23.2033 50.253 22.9574C49.9836 22.7115 49.6967 22.5475 49.3922 22.4655C49.0877 22.3836 48.8184 22.3426 48.5842 22.3426C48.3031 22.3426 48.0162 22.3836 47.7234 22.4655C47.4423 22.5358 47.173 22.647 46.9154 22.7993C46.6694 22.9398 46.4411 23.1155 46.2303 23.3263C46.0312 23.5371 45.8731 23.783 45.756 24.0641L45.7033 23.0452C45.6916 22.7759 45.633 22.6061 45.5276 22.5358C45.4339 22.4538 45.2056 22.4128 44.8425 22.4128C44.1633 22.4128 43.6246 22.4304 43.2264 22.4655C42.8282 22.4889 42.5237 22.5299 42.313 22.5885C42.1139 22.647 41.985 22.7232 41.9265 22.8169C41.8679 22.8988 41.8387 22.9984 41.8387 23.1155C41.8387 23.3263 41.9441 23.4727 42.1549 23.5546C42.3774 23.6249 42.6936 23.66 43.1034 23.66H43.8061C44.0169 23.66 44.1223 23.8943 44.1223 24.3627C44.1223 24.4447 44.1164 24.6672 44.1047 25.0302C44.093 25.3816 44.0813 25.7622 44.0696 26.172C44.0696 26.5702 44.0637 26.9391 44.052 27.2787C44.0403 27.6066 44.0345 27.7882 44.0345 27.8233C44.0345 27.8467 44.0286 27.9111 44.0169 28.0165C44.0169 28.1219 43.9993 28.2332 43.9642 28.3503C43.9408 28.4557 43.8939 28.5552 43.8237 28.6489C43.7534 28.7309 43.6597 28.7719 43.5426 28.7719H43.3494C43.3025 28.7719 43.244 28.7836 43.1737 28.807C43.1034 28.8187 43.0332 28.848 42.9629 28.8948C42.8926 28.9417 42.8341 29.0119 42.7872 29.1056C42.7404 29.1876 42.717 29.2989 42.717 29.4394C42.717 29.5916 42.7463 29.7146 42.8048 29.8083C42.8751 29.8903 42.9512 29.9547 43.0332 30.0015C43.1269 30.0367 43.2264 30.0601 43.3318 30.0718C43.4372 30.0835 43.5367 30.0894 43.6304 30.0894H43.9466H44.5263H45.2641C45.5217 30.0776 45.7618 30.0718 45.9843 30.0718H46.564H46.8451C47.1027 30.0718 47.2901 30.0132 47.4072 29.8961C47.536 29.7673 47.6004 29.6034 47.6004 29.4043C47.6004 29.0998 47.5243 28.9124 47.3721 28.8421C47.2315 28.7602 47.0559 28.7192 46.8451 28.7192H45.6681V27.0679C45.6681 26.904 45.6857 26.7283 45.7208 26.5409C45.756 26.3419 45.7911 26.1603 45.8262 25.9964C45.8731 25.8324 45.9141 25.6919 45.9492 25.5748C45.996 25.4577 46.0253 25.3874 46.037 25.364C46.1073 25.1883 46.201 25.0068 46.3181 24.8194C46.4352 24.6203 46.5757 24.4388 46.7397 24.2749C46.9036 24.1109 47.091 23.9762 47.3018 23.8708C47.5243 23.7654 47.7644 23.7127 48.022 23.7127C48.3499 23.7127 48.6193 23.8181 48.8301 24.0289C49.0409 24.228 49.2048 24.5091 49.322 24.8721C49.4391 25.2352 49.5152 25.6685 49.5503 26.172C49.5972 26.6756 49.6206 27.226 49.6206 27.8233C49.6206 28.0458 49.6147 28.2273 49.603 28.3678C49.603 28.5084 49.5972 28.6606 49.5854 28.8246C49.5737 29.0471 49.5445 29.2169 49.4976 29.334C49.4508 29.4511 49.3454 29.5272 49.1814 29.5624C49.0175 29.5975 48.8828 29.6678 48.7774 29.7732C48.6837 29.8668 48.6369 30.0132 48.6369 30.2123C48.6369 30.4465 48.713 30.6163 48.8652 30.7217C49.0175 30.8271 49.1697 30.8798 49.322 30.8798H49.5854C49.7494 30.8798 49.9368 30.874 50.1476 30.8623H50.8327C51.0786 30.8623 51.307 30.8564 51.5178 30.8447H52.0799H52.3785C52.6244 30.8447 52.8352 30.792 53.0109 30.6866C53.1866 30.5929 53.2744 30.429 53.2744 30.1948C53.2744 30.0542 53.2393 29.9371 53.169 29.8434C53.0987 29.7497 53.0109 29.6795 52.9055 29.6326C52.8001 29.5858 52.6771 29.5565 52.5366 29.5448C52.4078 29.5214 52.2848 29.5097 52.1677 29.5097ZM53.9946 23.4668C54.2757 23.4551 54.5275 23.4492 54.75 23.4492L54.7148 27.4368V27.9814C54.7266 28.1805 54.75 28.3854 54.7851 28.5962C54.8202 28.807 54.8671 29.0178 54.9256 29.2286C54.9959 29.4394 55.0896 29.6326 55.2067 29.8083C55.5229 30.2884 56.0499 30.5285 56.7877 30.5285C57.1859 30.5285 57.5313 30.47 57.8241 30.3529C58.1286 30.2357 58.3804 30.0776 58.5795 29.8786C58.7903 29.6795 58.9425 29.4511 59.0362 29.1935C59.1416 28.9241 59.1943 28.6372 59.1943 28.3327C59.1943 28.1336 59.1474 27.9814 59.0538 27.876C58.9718 27.7589 58.8254 27.7003 58.6146 27.7003C58.4155 27.7003 58.2633 27.7355 58.1579 27.8057C58.0525 27.876 57.9763 28.0107 57.9295 28.2097C57.8358 28.5845 57.7363 28.8363 57.6309 28.9651C57.5255 29.0939 57.344 29.1583 57.0863 29.1583C56.8287 29.1583 56.6413 29.0588 56.5242 28.8597C56.4071 28.6489 56.3485 28.2507 56.3485 27.6652V23.4141C56.6881 23.3907 57.0453 23.3673 57.4201 23.3438C57.7948 23.3204 58.1637 23.297 58.5268 23.2736C58.6439 23.2619 58.7727 23.2092 58.9132 23.1155C59.0538 23.0101 59.124 22.8461 59.124 22.6236C59.124 22.3777 59.0303 22.202 58.843 22.0966C58.6673 21.9912 58.5092 21.9385 58.3687 21.9385C58.3101 21.9385 58.1813 21.9444 57.9822 21.9561C57.7948 21.9561 57.5899 21.962 57.3674 21.9737C57.1449 21.9854 56.9341 21.9971 56.735 22.0088H56.3485V20.2346C56.3485 19.8833 56.2665 19.6608 56.1026 19.5671C55.9504 19.4734 55.7805 19.4265 55.5932 19.4265C55.3121 19.4265 55.1072 19.6081 54.9783 19.9711C54.9081 20.1585 54.8612 20.3985 54.8378 20.6913C54.8261 20.9841 54.8085 21.271 54.7851 21.5521C54.7734 21.7277 54.7207 21.8507 54.627 21.921C54.545 21.9795 54.4162 22.0205 54.2406 22.0439L53.3447 22.1669C53.169 22.1903 53.005 22.243 52.8528 22.325C52.7006 22.407 52.6244 22.5592 52.6244 22.7817C52.6244 23.0745 52.6947 23.2677 52.8352 23.3614C52.9641 23.4434 53.1046 23.4844 53.2568 23.4844C53.4676 23.4844 53.7136 23.4785 53.9946 23.4668ZM64.0112 29.0002H63.0802V23.2911C63.0802 23.1038 63.045 22.9574 62.9748 22.852C62.9045 22.7349 62.7815 22.6763 62.6059 22.6763C62.4068 22.6763 62.1433 22.6822 61.8154 22.6939C61.4875 22.7056 61.1537 22.7232 60.8141 22.7466C60.2871 22.7817 59.9182 22.8403 59.7074 22.9223C59.5083 23.0042 59.4088 23.1623 59.4088 23.3965C59.4088 23.5605 59.4498 23.701 59.5317 23.8181C59.6137 23.9235 59.7543 23.9762 59.9533 23.9762H60.1817C60.2988 23.9645 60.4218 23.9587 60.5506 23.9587H60.9195C61.0366 23.947 61.1127 23.9411 61.1479 23.9411C61.2767 23.9411 61.3587 23.9997 61.3938 24.1168C61.4406 24.2222 61.4699 24.3568 61.4816 24.5208C61.505 24.9073 61.5226 25.2527 61.5343 25.5572C61.546 25.85 61.5519 26.1955 61.5519 26.5936C61.5519 26.6873 61.546 26.822 61.5343 26.9977C61.5343 27.1733 61.5285 27.3666 61.5168 27.5774C61.5168 27.7764 61.5109 27.9755 61.4992 28.1746C61.4992 28.3737 61.4933 28.5377 61.4816 28.6665C61.4699 28.7953 61.3938 28.8831 61.2533 28.93C61.1244 28.9768 60.9663 29.0119 60.779 29.0354C60.4745 29.0588 60.2344 29.1232 60.0587 29.2286C59.8831 29.3223 59.7952 29.4804 59.7952 29.7029C59.7952 29.8551 59.8304 29.9722 59.9006 30.0542C59.9826 30.1362 60.0763 30.2006 60.1817 30.2475C60.2988 30.2826 60.4276 30.306 60.5682 30.3177C60.7204 30.3294 60.8668 30.3353 61.0073 30.3353H64.3274C64.4796 30.3353 64.6026 30.2767 64.6963 30.1596C64.8017 30.0308 64.8544 29.8727 64.8544 29.6853C64.8544 29.416 64.7783 29.2345 64.626 29.1408C64.4738 29.0471 64.2688 29.0002 64.0112 29.0002ZM61.06 19.7779C61.0132 19.9184 60.9898 20.0414 60.9898 20.1468C60.9898 20.4981 61.0893 20.7967 61.2884 21.0426C61.4992 21.2769 61.7568 21.394 62.0613 21.394C62.1784 21.394 62.3072 21.3706 62.4478 21.3237C62.5883 21.2769 62.7171 21.2007 62.8342 21.0953C62.9631 20.9899 63.0626 20.8553 63.1329 20.6913C63.2148 20.5274 63.2558 20.3224 63.2558 20.0765C63.2558 19.7135 63.1504 19.4324 62.9396 19.2333C62.7288 19.0225 62.4771 18.9171 62.1843 18.9171C61.9735 18.9171 61.792 18.964 61.6397 19.0576C61.4875 19.1396 61.3645 19.245 61.2708 19.3738C61.1771 19.5027 61.1069 19.6373 61.06 19.7779ZM74.9492 29.5097H74.0006V25.768C74.0006 25.0302 73.9069 24.4388 73.7195 23.9938C73.5321 23.5488 73.3038 23.2033 73.0344 22.9574C72.7651 22.7115 72.4782 22.5475 72.1737 22.4655C71.8692 22.3836 71.5998 22.3426 71.3656 22.3426C71.0846 22.3426 70.7976 22.3836 70.5049 22.4655C70.2238 22.5358 69.9544 22.647 69.6968 22.7993C69.4509 22.9398 69.2225 23.1155 69.0117 23.3263C68.8126 23.5371 68.6545 23.783 68.5374 24.0641L68.4847 23.0452C68.473 22.7759 68.4145 22.6061 68.3091 22.5358C68.2154 22.4538 67.987 22.4128 67.624 22.4128C66.9447 22.4128 66.406 22.4304 66.0079 22.4655C65.6097 22.4889 65.3052 22.5299 65.0944 22.5885C64.8953 22.647 64.7665 22.7232 64.7079 22.8169C64.6494 22.8988 64.6201 22.9984 64.6201 23.1155C64.6201 23.3263 64.7255 23.4727 64.9363 23.5546C65.1588 23.6249 65.475 23.66 65.8849 23.66H66.5876C66.7983 23.66 66.9037 23.8943 66.9037 24.3627C66.9037 24.4447 66.8979 24.6672 66.8862 25.0302C66.8745 25.3816 66.8628 25.7622 66.851 26.172C66.851 26.5702 66.8452 26.9391 66.8335 27.2787C66.8218 27.6066 66.8159 27.7882 66.8159 27.8233C66.8159 27.8467 66.8101 27.9111 66.7983 28.0165C66.7983 28.1219 66.7808 28.2332 66.7456 28.3503C66.7222 28.4557 66.6754 28.5552 66.6051 28.6489C66.5349 28.7309 66.4412 28.7719 66.3241 28.7719H66.1308C66.084 28.7719 66.0254 28.7836 65.9552 28.807C65.8849 28.8187 65.8146 28.848 65.7444 28.8948C65.6741 28.9417 65.6155 29.0119 65.5687 29.1056C65.5219 29.1876 65.4984 29.2989 65.4984 29.4394C65.4984 29.5916 65.5277 29.7146 65.5863 29.8083C65.6565 29.8903 65.7327 29.9547 65.8146 30.0015C65.9083 30.0367 66.0079 30.0601 66.1133 30.0718C66.2187 30.0835 66.3182 30.0894 66.4119 30.0894H66.7281H67.3078H68.0456C68.3032 30.0776 68.5433 30.0718 68.7658 30.0718H69.3455H69.6265C69.8842 30.0718 70.0716 30.0132 70.1887 29.8961C70.3175 29.7673 70.3819 29.6034 70.3819 29.4043C70.3819 29.0998 70.3058 28.9124 70.1535 28.8421C70.013 28.7602 69.8373 28.7192 69.6265 28.7192H68.4496V27.0679C68.4496 26.904 68.4672 26.7283 68.5023 26.5409C68.5374 26.3419 68.5726 26.1603 68.6077 25.9964C68.6545 25.8324 68.6955 25.6919 68.7307 25.5748C68.7775 25.4577 68.8068 25.3874 68.8185 25.364C68.8888 25.1883 68.9824 25.0068 69.0995 24.8194C69.2167 24.6203 69.3572 24.4388 69.5211 24.2749C69.6851 24.1109 69.8725 23.9762 70.0833 23.8708C70.3058 23.7654 70.5459 23.7127 70.8035 23.7127C71.1314 23.7127 71.4008 23.8181 71.6115 24.0289C71.8223 24.228 71.9863 24.5091 72.1034 24.8721C72.2205 25.2352 72.2966 25.6685 72.3318 26.172C72.3786 26.6756 72.402 27.226 72.402 27.8233C72.402 28.0458 72.3962 28.2273 72.3845 28.3678C72.3845 28.5084 72.3786 28.6606 72.3669 28.8246C72.3552 29.0471 72.3259 29.2169 72.2791 29.334C72.2322 29.4511 72.1268 29.5272 71.9629 29.5624C71.7989 29.5975 71.6642 29.6678 71.5588 29.7732C71.4652 29.8668 71.4183 30.0132 71.4183 30.2123C71.4183 30.4465 71.4944 30.6163 71.6467 30.7217C71.7989 30.8271 71.9512 30.8798 72.1034 30.8798H72.3669C72.5309 30.8798 72.7182 30.874 72.929 30.8623H73.6141C73.8601 30.8623 74.0884 30.8564 74.2992 30.8447H74.8613H75.16C75.4059 30.8447 75.6167 30.792 75.7924 30.6866C75.968 30.5929 76.0559 30.429 76.0559 30.1948C76.0559 30.0542 76.0207 29.9371 75.9505 29.8434C75.8802 29.7497 75.7924 29.6795 75.687 29.6326C75.5816 29.5858 75.4586 29.5565 75.3181 29.5448C75.1892 29.5214 75.0663 29.5097 74.9492 29.5097ZM80.711 22.2899C80.5236 22.2664 80.3245 22.2547 80.1137 22.2547C79.5282 22.2547 79.0187 22.3309 78.5854 22.4831C78.1521 22.6236 77.7891 22.8227 77.4963 23.0804C77.2152 23.338 77.0044 23.6483 76.8639 24.0114C76.7234 24.3627 76.6531 24.7433 76.6531 25.1532C76.6531 25.6099 76.7409 26.0432 76.9166 26.4531C77.104 26.863 77.385 27.1909 77.7598 27.4368C77.3968 27.6008 77.1216 27.7823 76.9342 27.9814C76.7585 28.1688 76.6707 28.4323 76.6707 28.7719C76.6707 29.2286 76.8112 29.5624 77.0923 29.7732C77.385 29.984 77.7598 30.1303 78.2165 30.2123C77.5373 30.3411 77.0337 30.5812 76.7058 30.9325C76.3896 31.2839 76.2315 31.723 76.2315 32.25C76.2315 32.6716 76.3311 33.0347 76.5301 33.3391C76.7409 33.6553 77.0396 33.913 77.426 34.1121C77.8125 34.3229 78.2751 34.4751 78.8138 34.5688C79.3642 34.6742 79.979 34.7269 80.6583 34.7269C81.3843 34.7269 82.0519 34.6625 82.6608 34.5337C83.2815 34.4048 83.8144 34.2116 84.2594 33.954C84.7161 33.6963 85.0733 33.3743 85.3309 32.9878C85.5886 32.6131 85.7174 32.1739 85.7174 31.6703C85.7174 31.237 85.6237 30.8681 85.4363 30.5637C85.2607 30.2709 85.0264 30.0308 84.7337 29.8434C84.4409 29.6443 84.1071 29.4921 83.7324 29.3867C83.3693 29.2696 83.0005 29.1876 82.6257 29.1408C82.2509 29.0822 81.8879 29.0471 81.5366 29.0354C81.1852 29.0237 80.8866 29.0178 80.6407 29.0178C79.8209 29.0061 79.2237 28.9651 78.8489 28.8948C78.4859 28.8129 78.3044 28.7075 78.3044 28.5786C78.3044 28.485 78.3922 28.3678 78.5679 28.2273C78.7552 28.0751 78.9602 27.9638 79.1827 27.8936C79.3115 27.917 79.411 27.9345 79.4813 27.9463H79.7799C80.9862 27.9463 81.9113 27.6828 82.5554 27.1558C83.1995 26.6288 83.5216 25.9261 83.5216 25.0478C83.5216 24.5794 83.4162 24.146 83.2054 23.7479C83.0063 23.3497 82.6901 23.0218 82.2568 22.7642C82.3973 22.6822 82.5437 22.6178 82.696 22.5709C82.8482 22.5241 82.9946 22.4889 83.1351 22.4655C83.2874 22.4421 83.422 22.4245 83.5392 22.4128C83.668 22.3894 83.7675 22.366 83.8378 22.3426C83.9315 22.3191 84.0076 22.2723 84.0661 22.202C84.1247 22.1318 84.154 22.0147 84.154 21.8507C84.154 21.5579 84.0661 21.353 83.8905 21.2359C83.7265 21.1188 83.5392 21.0602 83.3284 21.0602C82.9653 21.0602 82.5906 21.189 82.2041 21.4467C81.8294 21.7043 81.5073 22.0147 81.238 22.3777C81.074 22.3426 80.8983 22.3133 80.711 22.2899ZM79.9205 30.511C80.3069 30.429 80.6934 30.388 81.0798 30.388C81.4546 30.388 81.8176 30.4114 82.169 30.4583C82.532 30.5168 82.8541 30.6046 83.1351 30.7217C83.4162 30.8389 83.6387 30.997 83.8027 31.196C83.9783 31.3951 84.0661 31.6411 84.0661 31.9338C84.0661 32.1915 83.99 32.4081 83.8378 32.5838C83.6855 32.7712 83.4747 32.9234 83.2054 33.0405C82.936 33.1693 82.614 33.263 82.2392 33.3216C81.8645 33.3801 81.4546 33.4094 81.0096 33.4094C80.6348 33.4094 80.2601 33.386 79.8853 33.3391C79.5106 33.2923 79.171 33.2162 78.8665 33.1108C78.562 33.0054 78.3102 32.8707 78.1111 32.7068C77.9238 32.5428 77.8301 32.3379 77.8301 32.0919C77.8301 31.846 77.9238 31.6176 78.1111 31.4068C78.3102 31.2078 78.562 31.0321 78.8665 30.8798C79.1827 30.7276 79.534 30.6046 79.9205 30.511ZM78.7611 23.9938C79.0773 23.701 79.5282 23.5546 80.1137 23.5546C80.7227 23.5546 81.1677 23.701 81.4487 23.9938C81.7298 24.2866 81.8703 24.6379 81.8703 25.0478C81.8703 25.4928 81.7122 25.8734 81.396 26.1896C81.0916 26.5058 80.6583 26.6639 80.0961 26.6639C79.8151 26.6639 79.5633 26.6229 79.3408 26.5409C79.1183 26.4473 78.9309 26.3301 78.7786 26.1896C78.6264 26.0374 78.5093 25.8734 78.4273 25.6977C78.3453 25.5104 78.3044 25.323 78.3044 25.1356C78.3044 24.6555 78.4566 24.2749 78.7611 23.9938ZM86.6949 30.1772C86.6949 30.1069 86.6891 30.0249 86.6774 29.9313C87.017 30.306 87.38 30.5461 87.7665 30.6515C88.1529 30.7569 88.5453 30.8096 88.9434 30.8096C89.3416 30.8096 89.7222 30.7686 90.0853 30.6866C90.46 30.6046 90.7879 30.47 91.069 30.2826C91.35 30.0952 91.5725 29.861 91.7365 29.5799C91.9122 29.2989 92 28.9534 92 28.5435C92 28.0985 91.8946 27.7413 91.6838 27.472C91.4847 27.1909 91.2212 26.9625 90.8933 26.7869C90.5654 26.6112 90.2024 26.4707 89.8042 26.3653C89.4177 26.2599 89.043 26.1545 88.6799 26.0491C88.5277 26.0022 88.3637 25.9495 88.1881 25.891C88.0124 25.8207 87.8485 25.7329 87.6962 25.6275C87.5557 25.5104 87.4386 25.3757 87.3449 25.2235C87.2512 25.0595 87.2044 24.8604 87.2044 24.6262C87.2044 24.3334 87.3039 24.0875 87.503 23.8884C87.7021 23.6893 88.0593 23.5898 88.5745 23.5898C89.0547 23.5898 89.4119 23.6718 89.6461 23.8357C89.8803 23.9997 90.0501 24.1636 90.1555 24.3276C90.2492 24.4564 90.337 24.6203 90.419 24.8194C90.5127 25.0068 90.583 25.2059 90.6298 25.4167C90.6532 25.5455 90.7235 25.6685 90.8406 25.7856C90.9694 25.891 91.11 25.9437 91.2622 25.9437C91.4613 25.9437 91.596 25.8793 91.6662 25.7504C91.7482 25.6216 91.8009 25.4577 91.8243 25.2586C91.836 25.1766 91.8478 25.0478 91.8595 24.8721C91.8712 24.6848 91.8829 24.4798 91.8946 24.2573C91.9063 24.0348 91.9122 23.8064 91.9122 23.5722C91.9239 23.338 91.9297 23.1213 91.9297 22.9223C91.9297 22.5124 91.8712 22.2547 91.7541 22.1493C91.637 22.0439 91.4847 21.9912 91.2973 21.9912C91.1334 21.9912 90.9753 22.0322 90.823 22.1142C90.6708 22.1962 90.5947 22.3835 90.5947 22.6763V22.975C90.6064 23.1389 90.6181 23.297 90.6298 23.4492C90.5595 23.3321 90.4717 23.2092 90.3663 23.0804C90.2609 22.9398 90.1204 22.811 89.9447 22.6939C89.7808 22.5768 89.5758 22.4831 89.3299 22.4128C89.084 22.3426 88.7853 22.3074 88.434 22.3074C88.0827 22.3074 87.7431 22.3543 87.4152 22.448C87.0872 22.5299 86.7945 22.6705 86.5368 22.8696C86.2792 23.0569 86.0684 23.3029 85.9044 23.6073C85.7522 23.9118 85.6761 24.2807 85.6761 24.714C85.6761 25.2059 85.7698 25.6099 85.9571 25.9261C86.1445 26.2423 86.3787 26.5058 86.6598 26.7166C86.9409 26.9157 87.2512 27.0738 87.5908 27.1909C87.9304 27.2963 88.2525 27.3841 88.557 27.4544C88.9669 27.5598 89.2948 27.6652 89.5407 27.7706C89.7866 27.876 89.974 27.9872 90.1028 28.1043C90.2316 28.2097 90.3136 28.3151 90.3487 28.4205C90.3956 28.5259 90.419 28.6313 90.419 28.7367C90.419 29.0412 90.2726 29.2579 89.9799 29.3867C89.6988 29.5038 89.365 29.5624 88.9786 29.5624C88.4633 29.5624 88.0475 29.4862 87.7314 29.334C87.4152 29.17 87.1809 28.971 87.0287 28.7367C86.8647 28.4674 86.7593 28.2449 86.7125 28.0692C86.6657 27.8936 86.6305 27.7472 86.6071 27.6301C86.5837 27.5129 86.5193 27.4075 86.4139 27.3139C86.3202 27.2085 86.2089 27.1558 86.0801 27.1558C85.6117 27.1558 85.3774 27.349 85.3774 27.7355C85.3774 28.0165 85.3892 28.2742 85.4126 28.5084C85.436 28.7426 85.4477 28.9768 85.4477 29.211C85.4477 29.375 85.4419 29.5389 85.4302 29.7029C85.4184 29.8668 85.4126 30.0542 85.4126 30.265C85.4126 30.429 85.4477 30.5695 85.518 30.6866C85.5882 30.8037 85.7581 30.8623 86.0274 30.8623C86.2382 30.8623 86.4022 30.8096 86.5193 30.7042C86.6364 30.6105 86.6949 30.5051 86.6949 30.388V30.1772Z" fill="black"/>
</svg>
