<svg width="88" height="87" viewBox="0 0 88 87" fill="none" xmlns="http://www.w3.org/2000/svg">
<path d="M69.4394 32.6219C69.441 28.2557 68.3154 23.9629 66.1715 20.1593C64.0276 16.3556 60.938 13.1699 57.2018 10.9104C53.4656 8.65097 49.2094 7.39433 44.8452 7.26215C40.4809 7.12996 36.1565 8.12672 32.2904 10.1559C28.4243 12.1851 25.1476 15.1781 22.7774 18.845C20.4073 22.5119 19.0239 26.7286 18.7613 31.087C18.4986 35.4453 19.3656 39.7977 21.2783 43.7227C23.191 47.6477 26.0846 51.0125 29.679 53.4912L18.7153 72.4765L26.8892 72.8135L31.2659 79.7228L43.8238 57.9695C43.9107 57.9695 43.9904 57.984 44.0774 57.984C44.1643 57.984 44.244 57.9731 44.331 57.9695L56.8888 79.7228L61.3526 72.9621L69.4394 72.4765L58.4758 53.4912C61.8584 51.1623 64.6238 48.0456 66.5338 44.41C68.4438 40.7743 69.441 36.7287 69.4394 32.6219ZM25.9616 32.6219C25.9616 29.039 27.0241 25.5365 29.0147 22.5573C31.0053 19.5782 33.8346 17.2563 37.1448 15.8851C40.455 14.514 44.0975 14.1553 47.6116 14.8543C51.1257 15.5533 54.3536 17.2786 56.8871 19.8121C59.4207 22.3457 61.146 25.5736 61.845 29.0877C62.544 32.6018 62.1853 36.2443 60.8141 39.5545C59.443 42.8647 57.1211 45.694 54.1419 47.6846C51.1628 49.6752 47.6603 50.7377 44.0774 50.7377C39.2728 50.7377 34.665 48.829 31.2676 45.4317C27.8703 42.0343 25.9616 37.4265 25.9616 32.6219V32.6219Z" fill="white"/>
<path d="M44.0771 43.4914C50.0801 43.4914 54.9465 38.625 54.9465 32.6219C54.9465 26.6189 50.0801 21.7525 44.0771 21.7525C38.0741 21.7525 33.2076 26.6189 33.2076 32.6219C33.2076 38.625 38.0741 43.4914 44.0771 43.4914Z" fill="white"/>
</svg>
