<svg width="15" height="20" viewBox="0 0 15 20" fill="none" xmlns="http://www.w3.org/2000/svg">
<path d="M13.5659 10.1164L9.35244 15.6543C9.23506 15.8086 9.08099 15.8861 8.92689 15.8861C8.7728 15.8861 8.61872 15.8086 8.50135 15.6543C8.266 15.345 8.266 14.8449 8.50135 14.5356L11.6873 10.3481H2.3057C1.97284 10.3481 1.70378 9.9945 1.70378 9.557C1.70378 9.1195 1.97284 8.76586 2.3057 8.76586H11.6873L8.50135 4.57838C8.266 4.26905 8.266 3.769 8.50135 3.45966C8.7367 3.15033 9.11708 3.15033 9.35244 3.45966L13.5659 8.99764C13.8013 9.30697 13.8013 9.80702 13.5659 10.1164Z" fill="#234240"/>
</svg>
