<svg width="102" height="52" viewBox="0 0 102 52" fill="none" xmlns="http://www.w3.org/2000/svg">
<path d="M27.9557 32.7399V18.4509C24.6262 16.9249 21.5279 15.0752 18.7071 12.9018V32.7399H27.9557ZM18.7071 51.2371H9.45853V41.9885H0.209961V32.7399H9.45853V0.369972H18.7071V6.9827C27.0308 14.2428 38.4528 18.8671 51.0771 18.8671C63.7014 18.8671 75.1233 14.2428 83.447 6.9827V0.369972H92.6956V32.7399H101.944V41.9885H92.6956V51.2371H83.447V41.9885H18.7071V51.2371ZM74.1985 18.4509V32.7399H83.447V12.9018C80.6262 15.0752 77.528 16.9249 74.1985 18.4509ZM69.5742 32.7399V20.3469C66.6147 21.4105 63.5164 22.1966 60.3256 22.7515V32.7399H69.5742ZM55.7013 32.7399V23.3064L51.0771 23.4914L46.4528 23.3064V32.7399H55.7013ZM41.8285 32.7399V22.7515C38.6377 22.1966 35.5395 21.4105 32.5799 20.3469V32.7399H41.8285Z" fill="white"/>
</svg>
