<svg width="17" height="17" viewBox="0 0 17 17" fill="none" xmlns="http://www.w3.org/2000/svg">
<path d="M2.88366 1.84085H14.3694C14.6456 1.84085 14.8688 2.06401 14.8688 2.34023V13.826C14.8688 14.1022 14.6456 14.3253 14.3694 14.3253H8.75137C8.68271 14.3253 8.62653 14.2692 8.62653 14.2005V13.3266C8.62653 13.2579 8.68271 13.2017 8.75137 13.2017H13.7452V2.96445H3.50789V7.95825C3.50789 8.02692 3.45171 8.0831 3.38304 8.0831H2.50913C2.44046 8.0831 2.38428 8.02692 2.38428 7.95825V2.34023C2.38428 2.06401 2.60744 1.84085 2.88366 1.84085ZM6.42146 9.44703L5.60684 8.63241C5.59034 8.61583 5.57883 8.59495 5.5736 8.57214C5.56838 8.54934 5.56966 8.52553 5.57731 8.50341C5.58495 8.4813 5.59864 8.46178 5.61683 8.44706C5.63502 8.43235 5.65697 8.42303 5.68019 8.42018L8.47984 8.09246C8.55942 8.0831 8.62809 8.1502 8.61873 8.23135L8.29101 11.031C8.27852 11.134 8.15212 11.1777 8.07877 11.1043L7.26104 10.2866L3.26288 14.2848C3.2145 14.3331 3.13491 14.3331 3.08654 14.2848L2.42486 13.6231C2.37648 13.5747 2.37648 13.4951 2.42486 13.4467L6.42146 9.44703Z" fill="white"/>
</svg>
