<svg width="22" height="22" viewBox="0 0 22 22" fill="none" xmlns="http://www.w3.org/2000/svg">
<g clip-path="url(#clip0_31_211)">
<path d="M2.52083 0.916687L1.4465 13.3504L2.8985 13.0098L1.33696 14.6186L0.916664 19.4792L14.5026 20.6534L14.8798 17.6115L15.8602 20.7708L19.4792 21.0834L20.5333 8.88298L18.843 6.95477L20.6855 7.12252L21.0833 2.52085L8.39483 1.42406L7.68991 3.1946L7.14771 1.31635L2.52083 0.916687Z" stroke="white" stroke-width="1.46" stroke-linecap="round" stroke-linejoin="round"/>
<path d="M5.04992 6.82552C5.55618 6.82552 5.96659 6.41512 5.96659 5.90885C5.96659 5.40259 5.55618 4.99219 5.04992 4.99219C4.54366 4.99219 4.13326 5.40259 4.13326 5.90885C4.13326 6.41512 4.54366 6.82552 5.04992 6.82552Z" stroke="white" stroke-width="1.46" stroke-linecap="round" stroke-linejoin="round"/>
<path d="M4.90463 10.9381C5.41089 10.9381 5.82129 10.5277 5.82129 10.0215C5.82129 9.5152 5.41089 9.1048 4.90463 9.1048C4.39837 9.1048 3.98796 9.5152 3.98796 10.0215C3.98796 10.5277 4.39837 10.9381 4.90463 10.9381Z" stroke="white" stroke-width="1.46" stroke-linecap="round" stroke-linejoin="round"/>
<path d="M4.83404 15.0544C5.3403 15.0544 5.75071 14.644 5.75071 14.1377C5.75071 13.6315 5.3403 13.2211 4.83404 13.2211C4.32778 13.2211 3.91737 13.6315 3.91737 14.1377C3.91737 14.644 4.32778 15.0544 4.83404 15.0544Z" stroke="white" stroke-width="1.46" stroke-linecap="round" stroke-linejoin="round"/>
<path d="M7.93284 6.77417L18.1725 7.83613M7.43234 10.5398L17.8567 11.4987M7.08997 14.3532L17.4336 14.8161" stroke="white" stroke-width="1.46" stroke-linecap="round" stroke-linejoin="round"/>
</g>
<defs>
<clipPath id="clip0_31_211">
<rect width="22" height="22" fill="white"/>
</clipPath>
</defs>
</svg>
