<svg width="22" height="22" viewBox="0 0 22 22" fill="none" xmlns="http://www.w3.org/2000/svg">
<path d="M11 5.83002C11.4079 5.83002 11.8067 5.95098 12.1459 6.17761C12.485 6.40424 12.7494 6.72636 12.9055 7.10323C13.0616 7.48011 13.1025 7.8948 13.0229 8.29489C12.9433 8.69498 12.7469 9.06248 12.4584 9.35092C12.17 9.63937 11.8025 9.8358 11.4024 9.91539C11.0023 9.99497 10.5876 9.95412 10.2107 9.79802C9.83384 9.64191 9.51172 9.37756 9.28509 9.03838C9.05846 8.6992 8.9375 8.30044 8.9375 7.89252C8.9375 7.34551 9.1548 6.8209 9.54159 6.43411C9.92839 6.04732 10.453 5.83002 11 5.83002V5.83002ZM11 10.9588C13.2917 10.9588 15.125 11.6004 15.125 12.3658V14.3367H6.875V12.375C6.875 11.6004 8.70833 10.9588 11 10.9588Z" stroke="white" stroke-width="1.46" stroke-linecap="round" stroke-linejoin="round"/>
<path d="M10.175 2.2275L3.06625 5.15625V12.375C3.06625 16.2433 11 19.9375 11 19.9375C11 19.9375 18.9338 16.2433 18.9338 12.375V5.15625L11.825 2.2275C11.5636 2.11858 11.2832 2.0625 11 2.0625C10.7168 2.0625 10.4364 2.11858 10.175 2.2275V2.2275Z" stroke="white" stroke-width="1.46" stroke-linecap="round" stroke-linejoin="round"/>
</svg>
