<svg width="13" height="13" viewBox="0 0 13 13" fill="none" xmlns="http://www.w3.org/2000/svg">
<path d="M5.41659 6.01005L1.89104 3.50733C2.27949 2.88285 2.97772 2.46484 3.76445 2.46484H8.68155C9.46828 2.46484 10.1616 2.87793 10.555 3.5024L7.03922 6.00021C6.5426 6.32965 5.90338 6.32966 5.41659 6.01005ZM10.8844 4.4809L7.59978 6.8116C7.17691 7.09187 6.69503 7.22948 6.21808 7.22948C5.74604 7.22948 5.27399 7.09188 4.86095 6.81652L1.5616 4.4809C1.55668 4.54482 1.55176 4.61361 1.55176 4.67754V7.62779C1.55176 8.84723 2.54501 9.84049 3.76445 9.84049H8.68155C9.90098 9.84049 10.8942 8.84723 10.8942 7.62779V4.67754C10.8942 4.61361 10.8893 4.54482 10.8844 4.4809Z" fill="#234240"/>
</svg>
