<svg width="22" height="22" viewBox="0 0 22 22" fill="none" xmlns="http://www.w3.org/2000/svg">
<path d="M13.5607 4.43209L2.52083 15.4889M6.15496 15.741V19.3747M15.845 15.741V19.3747M17.6623 19.3747H4.33767C3.85581 19.3747 3.39369 19.1833 3.05297 18.8425C2.71225 18.5018 2.52083 18.0397 2.52083 17.5578V11.0976C2.5208 10.8588 2.56787 10.6223 2.65933 10.4017C2.7508 10.1811 2.88487 9.98074 3.05387 9.81201L9.71575 3.15701C10.0564 2.81644 10.5183 2.62512 11 2.62512C11.4817 2.62512 11.9436 2.81644 12.2842 3.15701L18.9461 9.81201C19.1151 9.98074 19.2492 10.1811 19.3407 10.4017C19.4321 10.6223 19.4792 10.8588 19.4792 11.0976V17.5578C19.4792 18.0397 19.2877 18.5018 18.947 18.8425C18.6063 19.1833 18.1442 19.3747 17.6623 19.3747V19.3747ZM6.15496 15.741H15.8446V11.8507L11 7.01067L6.15496 11.8507V15.741Z" stroke="#6C8A88" stroke-width="1.46" stroke-linecap="round" stroke-linejoin="round"/>
</svg>
