<svg width="13" height="13" viewBox="0 0 13 13" fill="none" xmlns="http://www.w3.org/2000/svg">
<path d="M10.8942 6.33676V11.2539C10.8942 11.3522 10.8352 11.4456 10.7418 11.48C10.7123 11.4948 10.6779 11.4997 10.6484 11.4997C10.5845 11.4997 10.5205 11.4752 10.4714 11.426L9.58137 10.5163H5.23958C4.29058 10.5163 3.5186 9.7443 3.5186 8.7953H7.20642C8.56354 8.7953 9.66496 7.69388 9.66496 6.33676V4.68948C10.373 4.90092 10.8942 5.55986 10.8942 6.33676ZM8.9274 6.33676V3.87821C8.9274 2.92921 8.15542 2.15723 7.20642 2.15723H3.27274C2.32374 2.15723 1.55176 2.92921 1.55176 3.87821V8.7953C1.55176 8.89365 1.61076 8.98705 1.70419 9.02147C1.73369 9.03622 1.76811 9.04116 1.79761 9.04116C1.86153 9.04116 1.92545 9.01662 1.97462 8.96745L2.86463 8.05774H7.20642C8.15542 8.05774 8.9274 7.28576 8.9274 6.33676Z" fill="#234240"/>
</svg>
