<svg width="225" height="63" viewBox="0 0 225 63" fill="none" xmlns="http://www.w3.org/2000/svg">
<path fill-rule="evenodd" clip-rule="evenodd" d="M52.8241 0.721558H0.5V60.2628H52.8241V0.721558ZM18.8741 46.9121C18.3678 47.2286 17.6873 47.4185 16.8328 47.4818C15.7251 47.5767 14.9814 47.735 14.6016 47.9565C14.2535 48.178 14.0794 48.4945 14.0794 48.9059C14.0794 49.5073 14.3009 49.9029 14.744 50.0928C15.2187 50.251 15.9625 50.3301 16.9752 50.3301H28.9858C29.8719 50.3301 30.4416 50.1877 30.6948 49.9029C30.9796 49.618 31.1221 49.2541 31.1221 48.811C31.1221 48.273 30.948 47.8932 30.5999 47.6717C30.2834 47.4501 29.777 47.3393 29.0807 47.3393H24.0961V34.5692C24.7924 34.6009 25.3779 34.6325 25.8526 34.6642H27.3242C29.0649 34.6642 30.8689 34.4585 32.7361 34.047C34.635 33.6039 36.3599 32.8919 37.9106 31.9108C39.4931 30.9297 40.7906 29.6479 41.8034 28.0655C42.8161 26.4514 43.3225 24.4576 43.3225 22.0839C43.3225 20.1217 42.9586 18.4602 42.2306 17.0993C41.5344 15.7384 40.5533 14.6307 39.2873 13.7762C38.0531 12.9217 36.5972 12.3046 34.9199 11.9248C33.2425 11.545 31.4385 11.3551 29.508 11.3551C28.1788 11.3551 26.9445 11.3709 25.8051 11.4026C24.6974 11.4026 23.6056 11.4184 22.5295 11.4501C21.4851 11.4501 20.4407 11.4659 19.3963 11.4975H16.1207C14.9181 11.4975 14.3168 11.9881 14.3168 12.9692C14.3168 13.4123 14.4117 13.7762 14.6016 14.0611C14.7915 14.3142 15.0605 14.4567 15.4086 14.4883L17.8772 14.6782C18.4785 14.7415 18.8741 14.9314 19.064 15.2479C19.2539 15.5644 19.3647 15.9916 19.3963 16.5296C19.4596 18.0488 19.5229 19.9318 19.5862 22.1789C19.6495 24.3943 19.6812 26.8628 19.6812 29.5846V34.0945C19.6812 35.2971 19.6653 36.4523 19.6337 37.56V40.978V45.298C19.6337 46.0576 19.3805 46.5956 18.8741 46.9121ZM25.7577 15.2479C26.3273 15.1846 26.9128 15.1529 27.5141 15.1529C28.4003 15.1529 29.4763 15.2004 30.7423 15.2953C32.0399 15.3903 33.2741 15.6751 34.4451 16.1499C35.6478 16.5929 36.6605 17.2892 37.4834 18.2386C38.3379 19.1881 38.7651 20.5173 38.7651 22.2263C38.7651 23.5239 38.4961 24.6949 37.9581 25.7393C37.4201 26.7837 36.6605 27.6857 35.6794 28.4453C34.6983 29.1732 33.5115 29.7428 32.119 30.1543C30.7264 30.5657 29.1757 30.7714 27.4667 30.7714H25.7577C25.1563 30.7398 24.6025 30.7081 24.0961 30.6765V15.4852C24.6341 15.3903 25.188 15.3112 25.7577 15.2479ZM68.0142 35.2813C68.1724 36.0725 68.2515 36.9587 68.2515 37.9398V40.6932C67.2705 40.0919 66.2894 39.6646 65.3083 39.4114C64.3272 39.1582 63.2669 39.0316 62.1276 39.0316C59.4375 39.0316 57.3329 39.633 55.8137 40.8356C54.3263 42.0066 53.5825 43.4941 53.5825 45.298C53.5825 47.007 54.2313 48.3679 55.5289 49.3807C56.8581 50.3618 58.6304 50.8523 60.8458 50.8523C62.3333 50.8523 63.6942 50.615 64.9285 50.1402C66.1944 49.6655 67.3337 48.9692 68.3465 48.0514C68.663 49.1591 69.1535 49.9029 69.8181 50.2826C70.5144 50.6624 71.274 50.8523 72.0968 50.8523C73.2362 50.8523 74.1856 50.5517 74.9452 49.9503C75.7048 49.3174 76.0845 48.3521 76.0845 47.0545C76.0845 46.3266 75.9421 45.836 75.6573 45.5829C75.4041 45.3297 75.0401 45.2031 74.5654 45.2031C73.9324 45.2031 73.5527 45.3455 73.4261 45.6303C73.2995 45.9152 73.2204 46.2317 73.1887 46.5798C73.1887 46.738 73.1571 46.8804 73.0938 47.007C73.0305 47.102 72.9197 47.1495 72.7615 47.1495C72.5399 47.1495 72.4133 46.9912 72.3817 46.6747C72.35 46.3582 72.3342 45.6145 72.3342 44.4435V42.8294L72.4291 40.9305C72.4608 40.2659 72.4766 39.633 72.4766 39.0316C72.5083 38.4303 72.5241 37.9398 72.5241 37.56C72.5241 34.585 71.812 32.2905 70.3878 30.6765C68.9636 29.0624 66.7166 28.2554 63.6467 28.2554C62.3175 28.2554 61.099 28.4136 59.9913 28.7301C58.9153 29.0466 57.9816 29.4738 57.1904 30.0119C56.4309 30.5499 55.8296 31.1987 55.3865 31.9582C54.9751 32.7178 54.7693 33.5406 54.7693 34.4268C54.7693 34.8066 54.801 35.1864 54.8643 35.5661C54.9592 35.9459 55.1175 36.3099 55.339 36.658C55.5605 36.9745 55.8454 37.2435 56.1935 37.465C56.5733 37.6549 57.0322 37.7499 57.5702 37.7499C58.1082 37.7499 58.6304 37.6233 59.1368 37.3701C59.6432 37.1169 59.8964 36.6422 59.8964 35.9459C59.8964 35.218 59.5799 34.7116 58.9469 34.4268C58.8836 34.3952 58.7729 34.3477 58.6146 34.2844C58.488 34.1894 58.4247 34.0154 58.4247 33.7622C58.4247 33.4773 58.5513 33.1925 58.8045 32.9077C59.0893 32.6228 59.4533 32.3855 59.8964 32.1956C60.3395 31.9741 60.8458 31.8 61.4155 31.6734C62.0168 31.5468 62.634 31.4835 63.2669 31.4835C64.248 31.4835 65.0551 31.6417 65.688 31.9582C66.321 32.2431 66.8274 32.6703 67.2072 33.24C67.5869 33.8097 67.8559 34.4901 68.0142 35.2813ZM58.9469 47.007C58.2823 46.564 57.95 45.931 57.95 45.1081C57.95 44.3169 58.314 43.6048 59.0419 42.9719C59.7698 42.3073 61.0199 41.9749 62.7922 41.9749C64.3746 41.9749 65.6406 42.244 66.59 42.782C67.5711 43.2884 68.0617 43.8738 68.0617 44.5385C68.0617 44.8233 67.9509 45.1556 67.7294 45.5354C67.5395 45.8835 67.2072 46.2158 66.7324 46.5323C66.2894 46.8171 65.688 47.0703 64.9285 47.2919C64.2006 47.5134 63.2986 47.6242 62.2225 47.6242C60.7351 47.6242 59.6432 47.4185 58.9469 47.007ZM87.5996 46.7222H85.0835V31.2936C85.0835 30.7872 84.9886 30.3916 84.7987 30.1068C84.6088 29.7903 84.2765 29.6321 83.8018 29.6321C83.2638 29.6321 82.5517 29.6479 81.6655 29.6795C80.7794 29.7112 79.8774 29.7587 78.9596 29.822C77.5354 29.9169 76.5385 30.0751 75.9688 30.2967C75.4308 30.5182 75.1618 30.9455 75.1618 31.5784C75.1618 32.0215 75.2726 32.4013 75.4941 32.7178C75.7156 33.0026 76.0954 33.145 76.6334 33.145H77.2506C77.5671 33.1134 77.8994 33.0976 78.2475 33.0976H79.2444C79.5609 33.0659 79.7666 33.0501 79.8616 33.0501C80.2097 33.0501 80.4312 33.2083 80.5262 33.5248C80.6528 33.8097 80.7319 34.1736 80.7635 34.6167C80.8268 35.6611 80.8743 36.5947 80.906 37.4176C80.9376 38.2088 80.9534 39.1424 80.9534 40.2185C80.9534 40.4716 80.9376 40.8356 80.906 41.3103C80.906 41.7851 80.8901 42.3073 80.8585 42.8769C80.8585 43.4149 80.8427 43.953 80.811 44.491C80.811 45.029 80.7952 45.4721 80.7635 45.8202C80.7319 46.1684 80.5262 46.4057 80.1464 46.5323C79.7983 46.6589 79.371 46.7538 78.8646 46.8171C78.0418 46.8804 77.393 47.0545 76.9183 47.3393C76.4435 47.5925 76.2062 48.0198 76.2062 48.6211C76.2062 49.0325 76.3011 49.349 76.491 49.5706C76.7126 49.7921 76.9657 49.9662 77.2506 50.0928C77.5671 50.1877 77.9152 50.251 78.295 50.2826C78.7064 50.3143 79.102 50.3301 79.4818 50.3301H88.4541C88.8655 50.3301 89.1978 50.1719 89.451 49.8554C89.7359 49.5073 89.8783 49.08 89.8783 48.5736C89.8783 47.8457 89.6726 47.3552 89.2611 47.102C88.8497 46.8488 88.2959 46.7222 87.5996 46.7222ZM79.6242 21.7991C79.4976 22.1789 79.4343 22.5112 79.4343 22.796C79.4343 23.7455 79.7033 24.5525 80.2413 25.2171C80.811 25.8501 81.5073 26.1666 82.3301 26.1666C82.6466 26.1666 82.9948 26.1033 83.3745 25.9767C83.7543 25.8501 84.1025 25.6444 84.4189 25.3595C84.7671 25.0747 85.0361 24.7107 85.226 24.2677C85.4475 23.8246 85.5583 23.2707 85.5583 22.6061C85.5583 21.625 85.2734 20.8655 84.7038 20.3274C84.1341 19.7578 83.4537 19.4729 82.6625 19.4729C82.0928 19.4729 81.6022 19.5995 81.1908 19.8527C80.7794 20.0743 80.4471 20.3591 80.1939 20.7072C79.9407 21.0554 79.7508 21.4193 79.6242 21.7991ZM117.159 48.0989H114.596V37.9872C114.596 35.9934 114.342 34.3952 113.836 33.1925C113.33 31.9899 112.712 31.0562 111.985 30.3916C111.257 29.727 110.481 29.2839 109.658 29.0624C108.836 28.8409 108.108 28.7301 107.475 28.7301C106.715 28.7301 105.94 28.8409 105.149 29.0624C104.389 29.2523 103.661 29.5529 102.965 29.9644C102.3 30.3442 101.683 30.8189 101.113 31.3886C100.575 31.9582 100.148 32.6228 99.8316 33.3824L99.6892 30.629C99.6575 29.9011 99.4993 29.4422 99.2144 29.2523C98.9613 29.0308 98.3441 28.92 97.363 28.92C95.5274 28.92 94.0716 28.9675 92.9955 29.0624C91.9195 29.1257 91.0966 29.2365 90.5269 29.3947C89.9889 29.5529 89.6408 29.7587 89.4826 30.0119C89.3243 30.2334 89.2452 30.5024 89.2452 30.8189C89.2452 31.3886 89.53 31.7842 90.0997 32.0057C90.701 32.1956 91.5555 32.2905 92.6632 32.2905H94.5621C95.1318 32.2905 95.4166 32.9235 95.4166 34.1894C95.4166 34.411 95.4008 35.0123 95.3692 35.9934C95.3375 36.9428 95.3059 37.9714 95.2742 39.0791C95.2742 40.1552 95.2584 41.1521 95.2267 42.0699C95.1951 42.956 95.1793 43.4466 95.1793 43.5415C95.1793 43.6048 95.1634 43.7789 95.1318 44.0637C95.1318 44.3486 95.0843 44.6492 94.9894 44.9657C94.9261 45.2506 94.7995 45.5196 94.6096 45.7728C94.4197 45.9943 94.1665 46.1051 93.85 46.1051H93.3278C93.2012 46.1051 93.043 46.1367 92.8531 46.2C92.6632 46.2317 92.4733 46.3108 92.2834 46.4374C92.0935 46.564 91.9353 46.7538 91.8087 47.007C91.6821 47.2286 91.6188 47.5292 91.6188 47.909C91.6188 48.3204 91.6979 48.6528 91.8562 48.9059C92.0461 49.1275 92.2518 49.3015 92.4733 49.4281C92.7265 49.5231 92.9955 49.5864 93.2804 49.618C93.5652 49.6497 93.8342 49.6655 94.0874 49.6655H94.9419H96.5085H98.5023C99.1986 49.6339 99.8474 49.618 100.449 49.618H102.015H102.775C103.471 49.618 103.978 49.4598 104.294 49.1433C104.642 48.7952 104.816 48.3521 104.816 47.8141C104.816 46.9912 104.61 46.4848 104.199 46.2949C103.819 46.0734 103.345 45.9626 102.775 45.9626H99.5942V41.5002C99.5942 41.0571 99.6417 40.5824 99.7366 40.076C99.8316 39.538 99.9265 39.0475 100.021 38.6044C100.148 38.1613 100.259 37.7815 100.354 37.465C100.48 37.1486 100.559 36.9587 100.591 36.8954C100.781 36.4207 101.034 35.9301 101.351 35.4237C101.667 34.8857 102.047 34.3952 102.49 33.9521C102.933 33.509 103.439 33.145 104.009 32.8602C104.61 32.5754 105.259 32.433 105.956 32.433C106.842 32.433 107.57 32.7178 108.139 33.2875C108.709 33.8255 109.152 34.585 109.469 35.5661C109.785 36.5472 109.991 37.7182 110.086 39.0791C110.212 40.44 110.276 41.9275 110.276 43.5415C110.276 44.1429 110.26 44.6334 110.228 45.0132C110.228 45.393 110.212 45.8044 110.181 46.2475C110.149 46.8488 110.07 47.3077 109.943 47.6242C109.817 47.9407 109.532 48.1464 109.089 48.2413C108.646 48.3363 108.282 48.5262 107.997 48.811C107.744 49.0642 107.617 49.4598 107.617 49.9978C107.617 50.6308 107.823 51.0897 108.234 51.3745C108.646 51.6594 109.057 51.8018 109.469 51.8018H110.181C110.624 51.8018 111.13 51.7859 111.7 51.7543H113.551C114.216 51.7543 114.833 51.7385 115.403 51.7068H116.922H117.729C118.393 51.7068 118.963 51.5644 119.438 51.2796C119.912 51.0264 120.15 50.5833 120.15 49.9503C120.15 49.5706 120.055 49.2541 119.865 49.0009C119.675 48.7477 119.438 48.5578 119.153 48.4312C118.868 48.3046 118.536 48.2255 118.156 48.1939C117.808 48.1306 117.476 48.0989 117.159 48.0989ZM122.096 31.7683C122.856 31.7367 123.536 31.7209 124.138 31.7209L124.043 42.4971V43.9688C124.074 44.5068 124.138 45.0607 124.232 45.6303C124.327 46.2 124.454 46.7697 124.612 47.3393C124.802 47.909 125.055 48.4312 125.372 48.9059C126.226 50.2035 127.651 50.8523 129.644 50.8523C130.72 50.8523 131.654 50.6941 132.445 50.3776C133.268 50.0611 133.949 49.6339 134.487 49.0958C135.056 48.5578 135.468 47.9407 135.721 47.2444C136.006 46.5165 136.148 45.7411 136.148 44.9182C136.148 44.3802 136.022 43.9688 135.768 43.684C135.547 43.3675 135.151 43.2092 134.582 43.2092C134.043 43.2092 133.632 43.3042 133.347 43.4941C133.062 43.684 132.857 44.0479 132.73 44.5859C132.477 45.5987 132.208 46.2791 131.923 46.6273C131.638 46.9754 131.148 47.1495 130.451 47.1495C129.755 47.1495 129.249 46.8804 128.932 46.3424C128.616 45.7728 128.458 44.6967 128.458 43.1143V31.6259C129.375 31.5626 130.341 31.4993 131.353 31.436C132.366 31.3727 133.363 31.3094 134.344 31.2461C134.661 31.2145 135.009 31.0721 135.389 30.8189C135.768 30.534 135.958 30.091 135.958 29.4897C135.958 28.825 135.705 28.3503 135.199 28.0655C134.724 27.7806 134.297 27.6382 133.917 27.6382C133.759 27.6382 133.411 27.654 132.872 27.6857C132.366 27.6857 131.812 27.7015 131.211 27.7332C130.61 27.7648 130.04 27.7965 129.502 27.8281H128.458V23.0334C128.458 22.0839 128.236 21.4826 127.793 21.2294C127.382 20.9762 126.923 20.8496 126.416 20.8496C125.657 20.8496 125.103 21.3402 124.755 22.3213C124.565 22.8277 124.438 23.4765 124.375 24.2677C124.343 25.0589 124.296 25.8343 124.232 26.5938C124.201 27.0686 124.058 27.4009 123.805 27.5907C123.584 27.749 123.236 27.8598 122.761 27.9231L120.34 28.2554C119.865 28.3187 119.422 28.4611 119.011 28.6826C118.599 28.9042 118.393 29.3156 118.393 29.9169C118.393 30.7081 118.583 31.2303 118.963 31.4835C119.311 31.705 119.691 31.8158 120.102 31.8158C120.672 31.8158 121.337 31.8 122.096 31.7683ZM149.166 46.7222H146.65V31.2936C146.65 30.7872 146.555 30.3916 146.365 30.1068C146.175 29.7903 145.843 29.6321 145.368 29.6321C144.83 29.6321 144.118 29.6479 143.232 29.6795C142.345 29.7112 141.443 29.7587 140.526 29.822C139.101 29.9169 138.105 30.0751 137.535 30.2967C136.997 30.5182 136.728 30.9455 136.728 31.5784C136.728 32.0215 136.839 32.4013 137.06 32.7178C137.282 33.0026 137.661 33.145 138.199 33.145H138.817C139.133 33.1134 139.465 33.0976 139.814 33.0976H140.81C141.127 33.0659 141.333 33.0501 141.428 33.0501C141.776 33.0501 141.997 33.2083 142.092 33.5248C142.219 33.8097 142.298 34.1736 142.33 34.6167C142.393 35.6611 142.44 36.5947 142.472 37.4176C142.504 38.2088 142.519 39.1424 142.519 40.2185C142.519 40.4716 142.504 40.8356 142.472 41.3103C142.472 41.7851 142.456 42.3073 142.424 42.8769C142.424 43.4149 142.409 43.953 142.377 44.491C142.377 45.029 142.361 45.4721 142.33 45.8202C142.298 46.1684 142.092 46.4057 141.712 46.5323C141.364 46.6589 140.937 46.7538 140.431 46.8171C139.608 46.8804 138.959 47.0545 138.484 47.3393C138.01 47.5925 137.772 48.0198 137.772 48.6211C137.772 49.0325 137.867 49.349 138.057 49.5706C138.279 49.7921 138.532 49.9662 138.817 50.0928C139.133 50.1877 139.481 50.251 139.861 50.2826C140.272 50.3143 140.668 50.3301 141.048 50.3301H150.02C150.432 50.3301 150.764 50.1719 151.017 49.8554C151.302 49.5073 151.444 49.08 151.444 48.5736C151.444 47.8457 151.239 47.3552 150.827 47.102C150.416 46.8488 149.862 46.7222 149.166 46.7222ZM141.19 21.7991C141.064 22.1789 141 22.5112 141 22.796C141 23.7455 141.269 24.5525 141.807 25.2171C142.377 25.8501 143.073 26.1666 143.896 26.1666C144.213 26.1666 144.561 26.1033 144.941 25.9767C145.32 25.8501 145.668 25.6444 145.985 25.3595C146.333 25.0747 146.602 24.7107 146.792 24.2677C147.014 23.8246 147.124 23.2707 147.124 22.6061C147.124 21.625 146.839 20.8655 146.27 20.3274C145.7 19.7578 145.02 19.4729 144.228 19.4729C143.659 19.4729 143.168 19.5995 142.757 19.8527C142.345 20.0743 142.013 20.3591 141.76 20.7072C141.507 21.0554 141.317 21.4193 141.19 21.7991ZM178.725 48.0989H176.162V37.9872C176.162 35.9934 175.908 34.3952 175.402 33.1925C174.896 31.9899 174.278 31.0562 173.551 30.3916C172.823 29.727 172.047 29.2839 171.224 29.0624C170.402 28.8409 169.674 28.7301 169.041 28.7301C168.281 28.7301 167.506 28.8409 166.715 29.0624C165.955 29.2523 165.227 29.5529 164.531 29.9644C163.866 30.3442 163.249 30.8189 162.679 31.3886C162.141 31.9582 161.714 32.6228 161.398 33.3824L161.255 30.629C161.224 29.9011 161.065 29.4422 160.78 29.2523C160.527 29.0308 159.91 28.92 158.929 28.92C157.093 28.92 155.638 28.9675 154.562 29.0624C153.485 29.1257 152.663 29.2365 152.093 29.3947C151.555 29.5529 151.207 29.7587 151.049 30.0119C150.89 30.2334 150.811 30.5024 150.811 30.8189C150.811 31.3886 151.096 31.7842 151.666 32.0057C152.267 32.1956 153.122 32.2905 154.229 32.2905H156.128C156.698 32.2905 156.983 32.9235 156.983 34.1894C156.983 34.411 156.967 35.0123 156.935 35.9934C156.904 36.9428 156.872 37.9714 156.84 39.0791C156.84 40.1552 156.824 41.1521 156.793 42.0699C156.761 42.956 156.745 43.4466 156.745 43.5415C156.745 43.6048 156.729 43.7789 156.698 44.0637C156.698 44.3486 156.65 44.6492 156.555 44.9657C156.492 45.2506 156.365 45.5196 156.176 45.7728C155.986 45.9943 155.733 46.1051 155.416 46.1051H154.894C154.767 46.1051 154.609 46.1367 154.419 46.2C154.229 46.2317 154.039 46.3108 153.849 46.4374C153.66 46.564 153.501 46.7538 153.375 47.007C153.248 47.2286 153.185 47.5292 153.185 47.909C153.185 48.3204 153.264 48.6528 153.422 48.9059C153.612 49.1275 153.818 49.3015 154.039 49.4281C154.293 49.5231 154.562 49.5864 154.846 49.618C155.131 49.6497 155.4 49.6655 155.653 49.6655H156.508H158.075H160.068C160.765 49.6339 161.413 49.618 162.015 49.618H163.581H164.341C165.037 49.618 165.544 49.4598 165.86 49.1433C166.208 48.7952 166.382 48.3521 166.382 47.8141C166.382 46.9912 166.176 46.4848 165.765 46.2949C165.385 46.0734 164.911 45.9626 164.341 45.9626H161.16V41.5002C161.16 41.0571 161.208 40.5824 161.303 40.076C161.398 39.538 161.493 39.0475 161.587 38.6044C161.714 38.1613 161.825 37.7815 161.92 37.465C162.046 37.1486 162.126 36.9587 162.157 36.8954C162.347 36.4207 162.6 35.9301 162.917 35.4237C163.233 34.8857 163.613 34.3952 164.056 33.9521C164.499 33.509 165.006 33.145 165.575 32.8602C166.176 32.5754 166.825 32.433 167.522 32.433C168.408 32.433 169.136 32.7178 169.705 33.2875C170.275 33.8255 170.718 34.585 171.035 35.5661C171.351 36.5472 171.557 37.7182 171.652 39.0791C171.778 40.44 171.842 41.9275 171.842 43.5415C171.842 44.1429 171.826 44.6334 171.794 45.0132C171.794 45.393 171.778 45.8044 171.747 46.2475C171.715 46.8488 171.636 47.3077 171.509 47.6242C171.383 47.9407 171.098 48.1464 170.655 48.2413C170.212 48.3363 169.848 48.5262 169.563 48.811C169.31 49.0642 169.183 49.4598 169.183 49.9978C169.183 50.6308 169.389 51.0897 169.8 51.3745C170.212 51.6594 170.623 51.8018 171.035 51.8018H171.747C172.19 51.8018 172.696 51.7859 173.266 51.7543H175.117C175.782 51.7543 176.399 51.7385 176.969 51.7068H178.488H179.295C179.959 51.7068 180.529 51.5644 181.004 51.2796C181.479 51.0264 181.716 50.5833 181.716 49.9503C181.716 49.5706 181.621 49.2541 181.431 49.0009C181.241 48.7477 181.004 48.5578 180.719 48.4312C180.434 48.3046 180.102 48.2255 179.722 48.1939C179.374 48.1306 179.042 48.0989 178.725 48.0989ZM194.296 28.5877C193.79 28.5244 193.252 28.4927 192.682 28.4927C191.1 28.4927 189.723 28.6984 188.552 29.1099C187.381 29.4897 186.4 30.0277 185.609 30.7239C184.849 31.4202 184.279 32.2589 183.9 33.24C183.52 34.1894 183.33 35.218 183.33 36.3257C183.33 37.56 183.567 38.731 184.042 39.8387C184.548 40.9464 185.308 41.8325 186.321 42.4971C185.34 42.9402 184.596 43.4308 184.089 43.9688C183.615 44.4752 183.377 45.1873 183.377 46.1051C183.377 47.3393 183.757 48.2413 184.517 48.811C185.308 49.3807 186.321 49.7763 187.555 49.9978C185.719 50.3459 184.359 50.9947 183.472 51.9442C182.618 52.8936 182.191 54.0805 182.191 55.5046C182.191 56.644 182.46 57.6251 182.998 58.4479C183.567 59.3024 184.374 59.9987 185.419 60.5367C186.463 61.1064 187.713 61.5178 189.169 61.771C190.657 62.0558 192.318 62.1983 194.154 62.1983C196.116 62.1983 197.92 62.0242 199.566 61.6761C201.243 61.3279 202.683 60.8057 203.886 60.1095C205.12 59.4132 206.085 58.5429 206.781 57.4985C207.478 56.4857 207.826 55.2989 207.826 53.938C207.826 52.767 207.573 51.7701 207.066 50.9473C206.592 50.1561 205.959 49.5073 205.167 49.0009C204.376 48.4629 203.474 48.0514 202.461 47.7666C201.48 47.4501 200.483 47.2286 199.471 47.102C198.458 46.9437 197.477 46.8488 196.527 46.8171C195.578 46.7855 194.771 46.7697 194.106 46.7697C191.891 46.738 190.277 46.6273 189.264 46.4374C188.283 46.2158 187.792 45.931 187.792 45.5829C187.792 45.3297 188.03 45.0132 188.504 44.6334C189.011 44.222 189.565 43.9213 190.166 43.7314C190.514 43.7947 190.783 43.8422 190.973 43.8738H191.78C195.04 43.8738 197.54 43.1618 199.281 41.7376C201.021 40.3134 201.892 38.4145 201.892 36.0409C201.892 34.7749 201.607 33.6039 201.037 32.5279C200.499 31.4519 199.645 30.5657 198.474 29.8694C198.853 29.6479 199.249 29.4738 199.661 29.3472C200.072 29.2206 200.468 29.1257 200.847 29.0624C201.259 28.9991 201.623 28.9516 201.939 28.92C202.287 28.8567 202.556 28.7934 202.746 28.7301C202.999 28.6668 203.205 28.5402 203.363 28.3503C203.522 28.1604 203.601 27.8439 203.601 27.4009C203.601 26.6096 203.363 26.0558 202.889 25.7393C202.446 25.4228 201.939 25.2646 201.37 25.2646C200.388 25.2646 199.376 25.6127 198.331 26.309C197.319 27.0053 196.448 27.8439 195.72 28.825C195.277 28.7301 194.802 28.651 194.296 28.5877ZM192.16 50.8048C193.204 50.5833 194.249 50.4725 195.293 50.4725C196.306 50.4725 197.287 50.5358 198.236 50.6624C199.217 50.8207 200.088 51.058 200.847 51.3745C201.607 51.691 202.208 52.1183 202.651 52.6563C203.126 53.1943 203.363 53.8589 203.363 54.6501C203.363 55.3464 203.158 55.9319 202.746 56.4066C202.335 56.913 201.765 57.3244 201.037 57.6409C200.309 57.989 199.439 58.2422 198.426 58.4005C197.413 58.5587 196.306 58.6378 195.103 58.6378C194.09 58.6378 193.078 58.5745 192.065 58.4479C191.052 58.3213 190.134 58.1156 189.311 57.8308C188.489 57.546 187.808 57.182 187.27 56.7389C186.764 56.2958 186.511 55.742 186.511 55.0774C186.511 54.4128 186.764 53.7956 187.27 53.2259C187.808 52.6879 188.489 52.2132 189.311 51.8018C190.166 51.3903 191.115 51.058 192.16 50.8048ZM189.027 33.1925C189.881 32.4013 191.1 32.0057 192.682 32.0057C194.328 32.0057 195.53 32.4013 196.29 33.1925C197.05 33.9837 197.429 34.9332 197.429 36.0409C197.429 37.2435 197.002 38.2721 196.148 39.1266C195.325 39.9811 194.154 40.4083 192.635 40.4083C191.875 40.4083 191.195 40.2976 190.593 40.076C189.992 39.8229 189.486 39.5064 189.074 39.1266C188.663 38.7152 188.346 38.2721 188.125 37.7974C187.903 37.291 187.792 36.7846 187.792 36.2782C187.792 34.9806 188.204 33.9521 189.027 33.1925ZM210.468 49.9029C210.468 49.713 210.452 49.4914 210.42 49.2383C211.338 50.251 212.319 50.8998 213.363 51.1846C214.408 51.4695 215.468 51.6119 216.544 51.6119C217.62 51.6119 218.649 51.5011 219.63 51.2796C220.643 51.058 221.529 50.6941 222.288 50.1877C223.048 49.6813 223.649 49.0484 224.092 48.2888C224.567 47.5292 224.804 46.5956 224.804 45.4879C224.804 44.2853 224.519 43.32 223.95 42.5921C223.412 41.8325 222.7 41.2154 221.814 40.7407C220.927 40.2659 219.946 39.8862 218.87 39.6013C217.826 39.3165 216.813 39.0316 215.832 38.7468C215.421 38.6202 214.977 38.4778 214.503 38.3196C214.028 38.1297 213.585 37.8923 213.173 37.6075C212.794 37.291 212.477 36.927 212.224 36.5156C211.971 36.0725 211.844 35.5345 211.844 34.9015C211.844 34.1103 212.113 33.4457 212.651 32.9077C213.189 32.3697 214.155 32.1006 215.547 32.1006C216.845 32.1006 217.81 32.3222 218.443 32.7653C219.076 33.2083 219.535 33.6514 219.82 34.0945C220.073 34.4426 220.31 34.8857 220.532 35.4237C220.785 35.9301 220.975 36.4681 221.101 37.0378C221.165 37.3859 221.355 37.7182 221.671 38.0347C222.019 38.3196 222.399 38.462 222.81 38.462C223.348 38.462 223.712 38.2879 223.902 37.9398C224.124 37.5916 224.266 37.1486 224.33 36.6105C224.361 36.389 224.393 36.0409 224.424 35.5661C224.456 35.0598 224.488 34.5059 224.519 33.9046C224.551 33.3033 224.567 32.6861 224.567 32.0532C224.599 31.4202 224.614 30.8347 224.614 30.2967C224.614 29.189 224.456 28.4927 224.14 28.2079C223.823 27.9231 223.412 27.7806 222.905 27.7806C222.462 27.7806 222.035 27.8914 221.624 28.1129C221.212 28.3345 221.006 28.8409 221.006 29.6321V30.4391C221.038 30.8822 221.07 31.3094 221.101 31.7209C220.912 31.4044 220.674 31.0721 220.389 30.7239C220.104 30.3442 219.725 29.996 219.25 29.6795C218.807 29.3631 218.253 29.1099 217.588 28.92C216.924 28.7301 216.117 28.6351 215.167 28.6351C214.218 28.6351 213.3 28.7617 212.414 29.0149C211.528 29.2365 210.737 29.6162 210.04 30.1543C209.344 30.6606 208.774 31.3253 208.331 32.1481C207.92 32.971 207.714 33.9679 207.714 35.1389C207.714 36.4681 207.967 37.56 208.474 38.4145C208.98 39.269 209.613 39.9811 210.373 40.5508C211.132 41.0888 211.971 41.516 212.889 41.8325C213.806 42.1174 214.677 42.3547 215.5 42.5446C216.607 42.8294 217.493 43.1143 218.158 43.3991C218.823 43.684 219.329 43.9846 219.677 44.3011C220.025 44.5859 220.247 44.8708 220.342 45.1556C220.468 45.4404 220.532 45.7253 220.532 46.0101C220.532 46.833 220.136 47.4185 219.345 47.7666C218.585 48.0831 217.683 48.2413 216.639 48.2413C215.246 48.2413 214.123 48.0356 213.268 47.6242C212.414 47.1811 211.781 46.6431 211.37 46.0101C210.926 45.2822 210.642 44.6809 210.515 44.2062C210.388 43.7314 210.293 43.3358 210.23 43.0193C210.167 42.7029 209.993 42.418 209.708 42.1648C209.455 41.88 209.154 41.7376 208.806 41.7376C207.54 41.7376 206.907 42.2598 206.907 43.3042C206.907 44.0637 206.939 44.76 207.002 45.393C207.065 46.0259 207.097 46.6589 207.097 47.2919C207.097 47.735 207.081 48.178 207.05 48.6211C207.018 49.0642 207.002 49.5706 207.002 50.1402C207.002 50.5833 207.097 50.9631 207.287 51.2796C207.477 51.5961 207.936 51.7543 208.664 51.7543C209.233 51.7543 209.676 51.6119 209.993 51.327C210.309 51.0739 210.468 50.789 210.468 50.4725V49.9029Z" fill="black"/>
</svg>
