<svg width="83" height="23" viewBox="0 0 83 23" fill="none" xmlns="http://www.w3.org/2000/svg">
<path fill-rule="evenodd" clip-rule="evenodd" d="M19.3616 0H0V22.0322H19.3616V0ZM6.79904 17.0705C6.61166 17.1876 6.35988 17.2579 6.04368 17.2813C5.6338 17.3164 5.35859 17.375 5.21806 17.457C5.08924 17.5389 5.02483 17.656 5.02483 17.8083C5.02483 18.0308 5.10681 18.1772 5.27076 18.2475C5.44642 18.306 5.72163 18.3353 6.09638 18.3353H10.5407C10.8686 18.3353 11.0794 18.2826 11.1731 18.1772C11.2785 18.0718 11.3312 17.9371 11.3312 17.7732C11.3312 17.5741 11.2668 17.4335 11.1379 17.3516C11.0208 17.2696 10.8335 17.2286 10.5758 17.2286H8.73134V12.5032C8.98899 12.5149 9.20564 12.5267 9.3813 12.5384H9.92586C10.57 12.5384 11.2375 12.4622 11.9284 12.31C12.6311 12.146 13.2693 11.8826 13.8432 11.5195C14.4287 11.1565 14.9089 10.6822 15.2836 10.0966C15.6584 9.49937 15.8457 8.76158 15.8457 7.88326C15.8457 7.15718 15.7111 6.54236 15.4417 6.03879C15.1841 5.53522 14.821 5.12533 14.3526 4.80914C13.8959 4.49294 13.3572 4.26458 12.7365 4.12405C12.1158 3.98352 11.4483 3.91325 10.7339 3.91325C10.2421 3.91325 9.78533 3.91911 9.36374 3.93082C8.95385 3.93082 8.54982 3.93667 8.15165 3.94838C7.76519 3.94838 7.37873 3.95424 6.99227 3.96595H5.78018C5.33517 3.96595 5.11266 4.14747 5.11266 4.51051C5.11266 4.67446 5.14779 4.80914 5.21806 4.91454C5.28832 5.00822 5.38787 5.06092 5.51669 5.07263L6.43014 5.1429C6.65265 5.16632 6.79904 5.23659 6.8693 5.3537C6.93957 5.47081 6.98056 5.6289 6.99227 5.82799C7.01569 6.39012 7.03911 7.08692 7.06253 7.91839C7.08596 8.73816 7.09767 9.65162 7.09767 10.6588V12.3276C7.09767 12.7726 7.09181 13.2 7.0801 13.6099V14.8747V16.4732C7.0801 16.7543 6.98641 16.9534 6.79904 17.0705ZM9.34617 5.3537C9.55697 5.33027 9.77362 5.31856 9.99613 5.31856C10.324 5.31856 10.7222 5.33613 11.1906 5.37126C11.6708 5.4064 12.1275 5.5118 12.5608 5.68746C13.0058 5.85141 13.3806 6.10905 13.6851 6.46038C14.0013 6.81171 14.1594 7.30357 14.1594 7.93596C14.1594 8.41611 14.0598 8.84942 13.8607 9.23588C13.6617 9.62234 13.3806 9.9561 13.0176 10.2372C12.6545 10.5065 12.2154 10.7173 11.7001 10.8696C11.1848 11.0218 10.611 11.0979 9.97856 11.0979H9.34617C9.12366 11.0862 8.91872 11.0745 8.73134 11.0628V5.44153C8.93043 5.4064 9.13537 5.37712 9.34617 5.3537ZM24.9825 12.7667C25.041 13.0595 25.0703 13.3874 25.0703 13.7504V14.7693C24.7073 14.5468 24.3442 14.3887 23.9812 14.295C23.6182 14.2013 23.2258 14.1545 22.8042 14.1545C21.8088 14.1545 21.03 14.377 20.4679 14.822C19.9175 15.2553 19.6423 15.8057 19.6423 16.4732C19.6423 17.1056 19.8824 17.6092 20.3625 17.984C20.8544 18.347 21.5102 18.5285 22.33 18.5285C22.8804 18.5285 23.3839 18.4407 23.8407 18.265C24.3091 18.0894 24.7307 17.8317 25.1054 17.4921C25.2226 17.902 25.4041 18.1772 25.65 18.3177C25.9076 18.4583 26.1887 18.5285 26.4932 18.5285C26.9148 18.5285 27.2661 18.4173 27.5472 18.1948C27.8282 17.9605 27.9688 17.6034 27.9688 17.1232C27.9688 16.8538 27.9161 16.6723 27.8107 16.5786C27.717 16.485 27.5823 16.4381 27.4067 16.4381C27.1724 16.4381 27.0319 16.4908 26.9851 16.5962C26.9382 16.7016 26.9089 16.8187 26.8972 16.9475C26.8972 17.0061 26.8855 17.0588 26.8621 17.1056C26.8387 17.1408 26.7977 17.1583 26.7391 17.1583C26.6572 17.1583 26.6103 17.0998 26.5986 16.9827C26.5869 16.8656 26.581 16.5904 26.581 16.157V15.5598L26.6162 14.8571C26.6279 14.6112 26.6337 14.377 26.6337 14.1545C26.6454 13.932 26.6513 13.7504 26.6513 13.6099C26.6513 12.5091 26.3878 11.66 25.8608 11.0628C25.3338 10.4655 24.5023 10.1669 23.3664 10.1669C22.8745 10.1669 22.4236 10.2255 22.0138 10.3426C21.6156 10.4597 21.2701 10.6178 20.9773 10.8169C20.6963 11.0159 20.4738 11.256 20.3098 11.5371C20.1576 11.8181 20.0814 12.1226 20.0814 12.4505C20.0814 12.5911 20.0932 12.7316 20.1166 12.8721C20.1517 13.0127 20.2103 13.1473 20.2922 13.2762C20.3742 13.3933 20.4796 13.4928 20.6084 13.5748C20.749 13.6451 20.9188 13.6802 21.1179 13.6802C21.317 13.6802 21.5102 13.6333 21.6976 13.5397C21.8849 13.446 21.9786 13.2703 21.9786 13.0127C21.9786 12.7433 21.8615 12.5559 21.6273 12.4505C21.6039 12.4388 21.5629 12.4213 21.5043 12.3978C21.4575 12.3627 21.4341 12.2983 21.4341 12.2046C21.4341 12.0992 21.4809 11.9938 21.5746 11.8884C21.68 11.783 21.8147 11.6952 21.9786 11.6249C22.1426 11.5429 22.33 11.4785 22.5408 11.4317C22.7633 11.3848 22.9916 11.3614 23.2258 11.3614C23.5889 11.3614 23.8875 11.42 24.1217 11.5371C24.3559 11.6425 24.5433 11.8006 24.6839 12.0114C24.8244 12.2222 24.9239 12.474 24.9825 12.7667ZM21.6273 17.1056C21.3814 16.9417 21.2584 16.7075 21.2584 16.403C21.2584 16.1102 21.3931 15.8467 21.6624 15.6125C21.9318 15.3666 22.3944 15.2436 23.0502 15.2436C23.6357 15.2436 24.1042 15.3431 24.4555 15.5422C24.8185 15.7296 25 15.9463 25 16.1922C25 16.2976 24.9591 16.4205 24.8771 16.5611C24.8068 16.6899 24.6839 16.8129 24.5082 16.93C24.3442 17.0354 24.1217 17.1291 23.8407 17.211C23.5713 17.293 23.2376 17.334 22.8394 17.334C22.289 17.334 21.8849 17.2579 21.6273 17.1056ZM32.2297 17.0002H31.2987V11.2911C31.2987 11.1038 31.2636 10.9574 31.1933 10.852C31.123 10.7349 31.0001 10.6763 30.8244 10.6763C30.6253 10.6763 30.3618 10.6822 30.0339 10.6939C29.706 10.7056 29.3723 10.7232 29.0326 10.7466C28.5056 10.7817 28.1368 10.8403 27.926 10.9223C27.7269 11.0042 27.6273 11.1623 27.6273 11.3965C27.6273 11.5605 27.6683 11.701 27.7503 11.8181C27.8323 11.9235 27.9728 11.9762 28.1719 11.9762H28.4003C28.5174 11.9645 28.6403 11.9587 28.7691 11.9587H29.138C29.2551 11.947 29.3313 11.9411 29.3664 11.9411C29.4952 11.9411 29.5772 11.9997 29.6123 12.1168C29.6592 12.2222 29.6885 12.3568 29.7002 12.5208C29.7236 12.9073 29.7412 13.2527 29.7529 13.5572C29.7646 13.85 29.7704 14.1955 29.7704 14.5936C29.7704 14.6873 29.7646 14.822 29.7529 14.9977C29.7529 15.1733 29.747 15.3666 29.7353 15.5774C29.7353 15.7764 29.7294 15.9755 29.7177 16.1746C29.7177 16.3737 29.7119 16.5377 29.7002 16.6665C29.6885 16.7953 29.6123 16.8831 29.4718 16.93C29.343 16.9768 29.1849 17.0119 28.9975 17.0354C28.693 17.0588 28.4529 17.1232 28.2773 17.2286C28.1016 17.3223 28.0138 17.4804 28.0138 17.7029C28.0138 17.8551 28.0489 17.9722 28.1192 18.0542C28.2012 18.1362 28.2949 18.2006 28.4003 18.2475C28.5174 18.2826 28.6462 18.306 28.7867 18.3177C28.939 18.3294 29.0853 18.3353 29.2259 18.3353H32.5459C32.6982 18.3353 32.8211 18.2767 32.9148 18.1596C33.0202 18.0308 33.0729 17.8727 33.0729 17.6853C33.0729 17.416 32.9968 17.2345 32.8446 17.1408C32.6923 17.0471 32.4874 17.0002 32.2297 17.0002ZM29.2786 7.77786C29.2317 7.9184 29.2083 8.04136 29.2083 8.14676C29.2083 8.49809 29.3078 8.79672 29.5069 9.04265C29.7177 9.27687 29.9754 9.39398 30.2799 9.39398C30.397 9.39398 30.5258 9.37055 30.6663 9.32371C30.8069 9.27687 30.9357 9.20074 31.0528 9.09535C31.1816 8.98995 31.2811 8.85527 31.3514 8.69132C31.4334 8.52736 31.4744 8.32242 31.4744 8.07649C31.4744 7.71345 31.369 7.43239 31.1582 7.2333C30.9474 7.02251 30.6956 6.91711 30.4028 6.91711C30.192 6.91711 30.0105 6.96395 29.8583 7.05764C29.706 7.13962 29.5831 7.24502 29.4894 7.37384C29.3957 7.50266 29.3254 7.63733 29.2786 7.77786ZM43.1677 17.5097H42.2191V13.768C42.2191 13.0302 42.1254 12.4388 41.9381 11.9938C41.7507 11.5488 41.5223 11.2033 41.253 10.9574C40.9836 10.7115 40.6967 10.5475 40.3922 10.4655C40.0877 10.3836 39.8184 10.3426 39.5842 10.3426C39.3031 10.3426 39.0162 10.3836 38.7234 10.4655C38.4423 10.5358 38.173 10.647 37.9154 10.7993C37.6694 10.9398 37.4411 11.1155 37.2303 11.3263C37.0312 11.5371 36.8731 11.783 36.756 12.0641L36.7033 11.0452C36.6916 10.7759 36.633 10.6061 36.5276 10.5358C36.4339 10.4538 36.2056 10.4128 35.8425 10.4128C35.1633 10.4128 34.6246 10.4304 34.2264 10.4655C33.8282 10.4889 33.5237 10.5299 33.313 10.5885C33.1139 10.647 32.985 10.7232 32.9265 10.8169C32.8679 10.8988 32.8387 10.9984 32.8387 11.1155C32.8387 11.3263 32.9441 11.4727 33.1549 11.5546C33.3774 11.6249 33.6936 11.66 34.1034 11.66H34.8061C35.0169 11.66 35.1223 11.8943 35.1223 12.3627C35.1223 12.4447 35.1164 12.6672 35.1047 13.0302C35.093 13.3816 35.0813 13.7622 35.0696 14.172C35.0696 14.5702 35.0637 14.9391 35.052 15.2787C35.0403 15.6066 35.0345 15.7882 35.0345 15.8233C35.0345 15.8467 35.0286 15.9111 35.0169 16.0165C35.0169 16.1219 34.9993 16.2332 34.9642 16.3503C34.9408 16.4557 34.8939 16.5552 34.8237 16.6489C34.7534 16.7309 34.6597 16.7719 34.5426 16.7719H34.3494C34.3025 16.7719 34.244 16.7836 34.1737 16.807C34.1034 16.8187 34.0332 16.848 33.9629 16.8948C33.8926 16.9417 33.8341 17.0119 33.7872 17.1056C33.7404 17.1876 33.717 17.2989 33.717 17.4394C33.717 17.5916 33.7463 17.7146 33.8048 17.8083C33.8751 17.8903 33.9512 17.9547 34.0332 18.0015C34.1269 18.0367 34.2264 18.0601 34.3318 18.0718C34.4372 18.0835 34.5367 18.0894 34.6304 18.0894H34.9466H35.5263H36.2641C36.5217 18.0776 36.7618 18.0718 36.9843 18.0718H37.564H37.8451C38.1027 18.0718 38.2901 18.0132 38.4072 17.8961C38.536 17.7673 38.6004 17.6034 38.6004 17.4043C38.6004 17.0998 38.5243 16.9124 38.3721 16.8421C38.2315 16.7602 38.0559 16.7192 37.8451 16.7192H36.6681V15.0679C36.6681 14.904 36.6857 14.7283 36.7208 14.5409C36.756 14.3419 36.7911 14.1603 36.8262 13.9964C36.8731 13.8324 36.9141 13.6919 36.9492 13.5748C36.996 13.4577 37.0253 13.3874 37.037 13.364C37.1073 13.1883 37.201 13.0068 37.3181 12.8194C37.4352 12.6203 37.5757 12.4388 37.7397 12.2749C37.9036 12.1109 38.091 11.9762 38.3018 11.8708C38.5243 11.7654 38.7644 11.7127 39.022 11.7127C39.3499 11.7127 39.6193 11.8181 39.8301 12.0289C40.0409 12.228 40.2048 12.5091 40.322 12.8721C40.4391 13.2352 40.5152 13.6685 40.5503 14.172C40.5972 14.6756 40.6206 15.226 40.6206 15.8233C40.6206 16.0458 40.6147 16.2273 40.603 16.3678C40.603 16.5084 40.5972 16.6606 40.5854 16.8246C40.5737 17.0471 40.5445 17.2169 40.4976 17.334C40.4508 17.4511 40.3454 17.5272 40.1814 17.5624C40.0175 17.5975 39.8828 17.6678 39.7774 17.7732C39.6837 17.8668 39.6369 18.0132 39.6369 18.2123C39.6369 18.4465 39.713 18.6163 39.8652 18.7217C40.0175 18.8271 40.1697 18.8798 40.322 18.8798H40.5854C40.7494 18.8798 40.9368 18.874 41.1476 18.8623H41.8327C42.0786 18.8623 42.307 18.8564 42.5178 18.8447H43.0799H43.3785C43.6244 18.8447 43.8352 18.792 44.0109 18.6866C44.1866 18.5929 44.2744 18.429 44.2744 18.1948C44.2744 18.0542 44.2393 17.9371 44.169 17.8434C44.0987 17.7497 44.0109 17.6795 43.9055 17.6326C43.8001 17.5858 43.6771 17.5565 43.5366 17.5448C43.4078 17.5214 43.2848 17.5097 43.1677 17.5097ZM44.9946 11.4668C45.2757 11.4551 45.5275 11.4492 45.75 11.4492L45.7148 15.4368V15.9814C45.7266 16.1805 45.75 16.3854 45.7851 16.5962C45.8202 16.807 45.8671 17.0178 45.9256 17.2286C45.9959 17.4394 46.0896 17.6326 46.2067 17.8083C46.5229 18.2884 47.0499 18.5285 47.7877 18.5285C48.1859 18.5285 48.5313 18.47 48.8241 18.3529C49.1286 18.2357 49.3804 18.0776 49.5795 17.8786C49.7903 17.6795 49.9425 17.4511 50.0362 17.1935C50.1416 16.9241 50.1943 16.6372 50.1943 16.3327C50.1943 16.1336 50.1474 15.9814 50.0538 15.876C49.9718 15.7589 49.8254 15.7003 49.6146 15.7003C49.4155 15.7003 49.2633 15.7355 49.1579 15.8057C49.0525 15.876 48.9763 16.0107 48.9295 16.2097C48.8358 16.5845 48.7363 16.8363 48.6309 16.9651C48.5255 17.0939 48.344 17.1583 48.0863 17.1583C47.8287 17.1583 47.6413 17.0588 47.5242 16.8597C47.4071 16.6489 47.3485 16.2507 47.3485 15.6652V11.4141C47.6881 11.3907 48.0453 11.3673 48.4201 11.3438C48.7948 11.3204 49.1637 11.297 49.5268 11.2736C49.6439 11.2619 49.7727 11.2092 49.9132 11.1155C50.0538 11.0101 50.124 10.8461 50.124 10.6236C50.124 10.3777 50.0303 10.202 49.843 10.0966C49.6673 9.99123 49.5092 9.93853 49.3687 9.93853C49.3101 9.93853 49.1813 9.94439 48.9822 9.9561C48.7948 9.9561 48.5899 9.96196 48.3674 9.97367C48.1449 9.98538 47.9341 9.99709 47.735 10.0088H47.3485V8.23459C47.3485 7.88326 47.2665 7.66075 47.1026 7.56707C46.9504 7.47338 46.7805 7.42653 46.5932 7.42653C46.3121 7.42653 46.1072 7.60805 45.9783 7.97109C45.9081 8.15847 45.8612 8.39854 45.8378 8.69132C45.8261 8.98409 45.8085 9.27101 45.7851 9.55207C45.7734 9.72774 45.7207 9.8507 45.627 9.92097C45.545 9.97952 45.4162 10.0205 45.2406 10.0439L44.3447 10.1669C44.169 10.1903 44.005 10.243 43.8528 10.325C43.7006 10.407 43.6244 10.5592 43.6244 10.7817C43.6244 11.0745 43.6947 11.2677 43.8352 11.3614C43.9641 11.4434 44.1046 11.4844 44.2568 11.4844C44.4676 11.4844 44.7136 11.4785 44.9946 11.4668ZM55.0112 17.0002H54.0802V11.2911C54.0802 11.1038 54.045 10.9574 53.9748 10.852C53.9045 10.7349 53.7815 10.6763 53.6059 10.6763C53.4068 10.6763 53.1433 10.6822 52.8154 10.6939C52.4875 10.7056 52.1537 10.7232 51.8141 10.7466C51.2871 10.7817 50.9182 10.8403 50.7074 10.9223C50.5083 11.0042 50.4088 11.1623 50.4088 11.3965C50.4088 11.5605 50.4498 11.701 50.5317 11.8181C50.6137 11.9235 50.7543 11.9762 50.9533 11.9762H51.1817C51.2988 11.9645 51.4218 11.9587 51.5506 11.9587H51.9195C52.0366 11.947 52.1127 11.9411 52.1479 11.9411C52.2767 11.9411 52.3587 11.9997 52.3938 12.1168C52.4406 12.2222 52.4699 12.3568 52.4816 12.5208C52.505 12.9073 52.5226 13.2527 52.5343 13.5572C52.546 13.85 52.5519 14.1955 52.5519 14.5936C52.5519 14.6873 52.546 14.822 52.5343 14.9977C52.5343 15.1733 52.5285 15.3666 52.5168 15.5774C52.5168 15.7764 52.5109 15.9755 52.4992 16.1746C52.4992 16.3737 52.4933 16.5377 52.4816 16.6665C52.4699 16.7953 52.3938 16.8831 52.2533 16.93C52.1244 16.9768 51.9663 17.0119 51.779 17.0354C51.4745 17.0588 51.2344 17.1232 51.0587 17.2286C50.8831 17.3223 50.7952 17.4804 50.7952 17.7029C50.7952 17.8551 50.8304 17.9722 50.9006 18.0542C50.9826 18.1362 51.0763 18.2006 51.1817 18.2475C51.2988 18.2826 51.4276 18.306 51.5682 18.3177C51.7204 18.3294 51.8668 18.3353 52.0073 18.3353H55.3274C55.4796 18.3353 55.6026 18.2767 55.6963 18.1596C55.8017 18.0308 55.8544 17.8727 55.8544 17.6853C55.8544 17.416 55.7783 17.2345 55.626 17.1408C55.4738 17.0471 55.2688 17.0002 55.0112 17.0002ZM52.06 7.77786C52.0132 7.9184 51.9898 8.04136 51.9898 8.14676C51.9898 8.49809 52.0893 8.79672 52.2884 9.04265C52.4992 9.27687 52.7568 9.39398 53.0613 9.39398C53.1784 9.39398 53.3072 9.37055 53.4478 9.32371C53.5883 9.27687 53.7171 9.20074 53.8342 9.09535C53.9631 8.98995 54.0626 8.85527 54.1329 8.69132C54.2148 8.52736 54.2558 8.32242 54.2558 8.07649C54.2558 7.71345 54.1504 7.43239 53.9396 7.2333C53.7288 7.02251 53.4771 6.91711 53.1843 6.91711C52.9735 6.91711 52.792 6.96395 52.6397 7.05764C52.4875 7.13962 52.3645 7.24502 52.2708 7.37384C52.1771 7.50266 52.1069 7.63733 52.06 7.77786ZM65.9492 17.5097H65.0006V13.768C65.0006 13.0302 64.9069 12.4388 64.7195 11.9938C64.5321 11.5488 64.3038 11.2033 64.0344 10.9574C63.7651 10.7115 63.4782 10.5475 63.1737 10.4655C62.8692 10.3836 62.5998 10.3426 62.3656 10.3426C62.0846 10.3426 61.7976 10.3836 61.5049 10.4655C61.2238 10.5358 60.9544 10.647 60.6968 10.7993C60.4509 10.9398 60.2225 11.1155 60.0117 11.3263C59.8126 11.5371 59.6545 11.783 59.5374 12.0641L59.4847 11.0452C59.473 10.7759 59.4145 10.6061 59.3091 10.5358C59.2154 10.4538 58.987 10.4128 58.624 10.4128C57.9447 10.4128 57.406 10.4304 57.0079 10.4655C56.6097 10.4889 56.3052 10.5299 56.0944 10.5885C55.8953 10.647 55.7665 10.7232 55.7079 10.8169C55.6494 10.8988 55.6201 10.9984 55.6201 11.1155C55.6201 11.3263 55.7255 11.4727 55.9363 11.5546C56.1588 11.6249 56.475 11.66 56.8849 11.66H57.5876C57.7983 11.66 57.9037 11.8943 57.9037 12.3627C57.9037 12.4447 57.8979 12.6672 57.8862 13.0302C57.8745 13.3816 57.8628 13.7622 57.851 14.172C57.851 14.5702 57.8452 14.9391 57.8335 15.2787C57.8218 15.6066 57.8159 15.7882 57.8159 15.8233C57.8159 15.8467 57.8101 15.9111 57.7983 16.0165C57.7983 16.1219 57.7808 16.2332 57.7456 16.3503C57.7222 16.4557 57.6754 16.5552 57.6051 16.6489C57.5349 16.7309 57.4412 16.7719 57.3241 16.7719H57.1308C57.084 16.7719 57.0254 16.7836 56.9552 16.807C56.8849 16.8187 56.8146 16.848 56.7444 16.8948C56.6741 16.9417 56.6155 17.0119 56.5687 17.1056C56.5219 17.1876 56.4984 17.2989 56.4984 17.4394C56.4984 17.5916 56.5277 17.7146 56.5863 17.8083C56.6565 17.8903 56.7327 17.9547 56.8146 18.0015C56.9083 18.0367 57.0079 18.0601 57.1133 18.0718C57.2187 18.0835 57.3182 18.0894 57.4119 18.0894H57.7281H58.3078H59.0456C59.3032 18.0776 59.5433 18.0718 59.7658 18.0718H60.3455H60.6265C60.8842 18.0718 61.0716 18.0132 61.1887 17.8961C61.3175 17.7673 61.3819 17.6034 61.3819 17.4043C61.3819 17.0998 61.3058 16.9124 61.1535 16.8421C61.013 16.7602 60.8373 16.7192 60.6265 16.7192H59.4496V15.0679C59.4496 14.904 59.4672 14.7283 59.5023 14.5409C59.5374 14.3419 59.5726 14.1603 59.6077 13.9964C59.6545 13.8324 59.6955 13.6919 59.7307 13.5748C59.7775 13.4577 59.8068 13.3874 59.8185 13.364C59.8888 13.1883 59.9824 13.0068 60.0995 12.8194C60.2167 12.6203 60.3572 12.4388 60.5211 12.2749C60.6851 12.1109 60.8725 11.9762 61.0833 11.8708C61.3058 11.7654 61.5459 11.7127 61.8035 11.7127C62.1314 11.7127 62.4008 11.8181 62.6115 12.0289C62.8223 12.228 62.9863 12.5091 63.1034 12.8721C63.2205 13.2352 63.2966 13.6685 63.3318 14.172C63.3786 14.6756 63.402 15.226 63.402 15.8233C63.402 16.0458 63.3962 16.2273 63.3845 16.3678C63.3845 16.5084 63.3786 16.6606 63.3669 16.8246C63.3552 17.0471 63.3259 17.2169 63.2791 17.334C63.2322 17.4511 63.1268 17.5272 62.9629 17.5624C62.7989 17.5975 62.6642 17.6678 62.5588 17.7732C62.4652 17.8668 62.4183 18.0132 62.4183 18.2123C62.4183 18.4465 62.4944 18.6163 62.6467 18.7217C62.7989 18.8271 62.9512 18.8798 63.1034 18.8798H63.3669C63.5309 18.8798 63.7182 18.874 63.929 18.8623H64.6141C64.8601 18.8623 65.0884 18.8564 65.2992 18.8447H65.8613H66.16C66.4059 18.8447 66.6167 18.792 66.7924 18.6866C66.968 18.5929 67.0559 18.429 67.0559 18.1948C67.0559 18.0542 67.0207 17.9371 66.9505 17.8434C66.8802 17.7497 66.7924 17.6795 66.687 17.6326C66.5816 17.5858 66.4586 17.5565 66.3181 17.5448C66.1892 17.5214 66.0663 17.5097 65.9492 17.5097ZM71.711 10.2899C71.5236 10.2664 71.3245 10.2547 71.1137 10.2547C70.5282 10.2547 70.0187 10.3309 69.5854 10.4831C69.1521 10.6236 68.7891 10.8227 68.4963 11.0804C68.2152 11.338 68.0044 11.6483 67.8639 12.0114C67.7234 12.3627 67.6531 12.7433 67.6531 13.1532C67.6531 13.6099 67.7409 14.0432 67.9166 14.4531C68.104 14.863 68.385 15.1909 68.7598 15.4368C68.3968 15.6008 68.1216 15.7823 67.9342 15.9814C67.7585 16.1688 67.6707 16.4323 67.6707 16.7719C67.6707 17.2286 67.8112 17.5624 68.0923 17.7732C68.385 17.984 68.7598 18.1303 69.2165 18.2123C68.5373 18.3411 68.0337 18.5812 67.7058 18.9325C67.3896 19.2839 67.2315 19.723 67.2315 20.25C67.2315 20.6716 67.3311 21.0347 67.5301 21.3391C67.7409 21.6553 68.0396 21.913 68.426 22.1121C68.8125 22.3229 69.2751 22.4751 69.8138 22.5688C70.3642 22.6742 70.979 22.7269 71.6583 22.7269C72.3843 22.7269 73.0519 22.6625 73.6608 22.5337C74.2815 22.4048 74.8144 22.2116 75.2594 21.954C75.7161 21.6963 76.0733 21.3743 76.3309 20.9878C76.5886 20.6131 76.7174 20.1739 76.7174 19.6703C76.7174 19.237 76.6237 18.8681 76.4363 18.5637C76.2607 18.2709 76.0264 18.0308 75.7337 17.8434C75.4409 17.6443 75.1071 17.4921 74.7324 17.3867C74.3693 17.2696 74.0005 17.1876 73.6257 17.1408C73.2509 17.0822 72.8879 17.0471 72.5366 17.0354C72.1852 17.0237 71.8866 17.0178 71.6407 17.0178C70.8209 17.0061 70.2237 16.9651 69.8489 16.8948C69.4859 16.8129 69.3044 16.7075 69.3044 16.5786C69.3044 16.485 69.3922 16.3678 69.5679 16.2273C69.7552 16.0751 69.9602 15.9638 70.1827 15.8936C70.3115 15.917 70.411 15.9345 70.4813 15.9463H70.7799C71.9862 15.9463 72.9113 15.6828 73.5554 15.1558C74.1995 14.6288 74.5216 13.9261 74.5216 13.0478C74.5216 12.5794 74.4162 12.146 74.2054 11.7479C74.0063 11.3497 73.6901 11.0218 73.2568 10.7642C73.3973 10.6822 73.5437 10.6178 73.696 10.5709C73.8482 10.5241 73.9946 10.4889 74.1351 10.4655C74.2874 10.4421 74.422 10.4245 74.5392 10.4128C74.668 10.3894 74.7675 10.366 74.8378 10.3426C74.9315 10.3191 75.0076 10.2723 75.0661 10.202C75.1247 10.1318 75.154 10.0147 75.154 9.8507C75.154 9.55793 75.0661 9.35299 74.8905 9.23588C74.7265 9.11877 74.5392 9.06021 74.3284 9.06021C73.9653 9.06021 73.5906 9.18903 73.2041 9.44667C72.8294 9.70432 72.5073 10.0147 72.238 10.3777C72.074 10.3426 71.8983 10.3133 71.711 10.2899ZM70.9205 18.511C71.3069 18.429 71.6934 18.388 72.0798 18.388C72.4546 18.388 72.8176 18.4114 73.169 18.4583C73.532 18.5168 73.8541 18.6046 74.1351 18.7217C74.4162 18.8389 74.6387 18.997 74.8027 19.196C74.9783 19.3951 75.0661 19.6411 75.0661 19.9338C75.0661 20.1915 74.99 20.4081 74.8378 20.5838C74.6855 20.7712 74.4747 20.9234 74.2054 21.0405C73.936 21.1693 73.614 21.263 73.2392 21.3216C72.8645 21.3801 72.4546 21.4094 72.0096 21.4094C71.6348 21.4094 71.2601 21.386 70.8853 21.3391C70.5106 21.2923 70.171 21.2162 69.8665 21.1108C69.562 21.0054 69.3102 20.8707 69.1111 20.7068C68.9238 20.5428 68.8301 20.3379 68.8301 20.0919C68.8301 19.846 68.9238 19.6176 69.1111 19.4068C69.3102 19.2078 69.562 19.0321 69.8665 18.8798C70.1827 18.7276 70.534 18.6046 70.9205 18.511ZM69.7611 11.9938C70.0773 11.701 70.5282 11.5546 71.1137 11.5546C71.7227 11.5546 72.1677 11.701 72.4487 11.9938C72.7298 12.2866 72.8703 12.6379 72.8703 13.0478C72.8703 13.4928 72.7122 13.8734 72.396 14.1896C72.0916 14.5058 71.6583 14.6639 71.0961 14.6639C70.8151 14.6639 70.5633 14.6229 70.3408 14.5409C70.1183 14.4473 69.9309 14.3301 69.7786 14.1896C69.6264 14.0374 69.5093 13.8734 69.4273 13.6977C69.3453 13.5104 69.3044 13.323 69.3044 13.1356C69.3044 12.6555 69.4566 12.2749 69.7611 11.9938ZM77.6949 18.1772C77.6949 18.1069 77.6891 18.0249 77.6774 17.9313C78.017 18.306 78.38 18.5461 78.7665 18.6515C79.1529 18.7569 79.5453 18.8096 79.9434 18.8096C80.3416 18.8096 80.7222 18.7686 81.0853 18.6866C81.46 18.6046 81.7879 18.47 82.069 18.2826C82.35 18.0952 82.5725 17.861 82.7365 17.5799C82.9122 17.2989 83 16.9534 83 16.5435C83 16.0985 82.8946 15.7413 82.6838 15.472C82.4847 15.1909 82.2212 14.9625 81.8933 14.7869C81.5654 14.6112 81.2024 14.4707 80.8042 14.3653C80.4177 14.2599 80.043 14.1545 79.6799 14.0491C79.5277 14.0022 79.3637 13.9495 79.1881 13.891C79.0124 13.8207 78.8485 13.7329 78.6962 13.6275C78.5557 13.5104 78.4386 13.3757 78.3449 13.2235C78.2512 13.0595 78.2044 12.8604 78.2044 12.6262C78.2044 12.3334 78.3039 12.0875 78.503 11.8884C78.7021 11.6893 79.0593 11.5898 79.5745 11.5898C80.0547 11.5898 80.4119 11.6718 80.6461 11.8357C80.8803 11.9997 81.0501 12.1636 81.1555 12.3276C81.2492 12.4564 81.337 12.6203 81.419 12.8194C81.5127 13.0068 81.583 13.2059 81.6298 13.4167C81.6532 13.5455 81.7235 13.6685 81.8406 13.7856C81.9694 13.891 82.11 13.9437 82.2622 13.9437C82.4613 13.9437 82.596 13.8793 82.6662 13.7504C82.7482 13.6216 82.8009 13.4577 82.8243 13.2586C82.836 13.1766 82.8478 13.0478 82.8595 12.8721C82.8712 12.6848 82.8829 12.4798 82.8946 12.2573C82.9063 12.0348 82.9122 11.8064 82.9122 11.5722C82.9239 11.338 82.9297 11.1213 82.9297 10.9223C82.9297 10.5124 82.8712 10.2547 82.7541 10.1493C82.637 10.0439 82.4847 9.99123 82.2973 9.99123C82.1334 9.99123 81.9753 10.0322 81.823 10.1142C81.6708 10.1962 81.5947 10.3835 81.5947 10.6763V10.975C81.6064 11.1389 81.6181 11.297 81.6298 11.4492C81.5595 11.3321 81.4717 11.2092 81.3663 11.0804C81.2609 10.9398 81.1204 10.811 80.9447 10.6939C80.7808 10.5768 80.5758 10.4831 80.3299 10.4128C80.084 10.3426 79.7853 10.3074 79.434 10.3074C79.0827 10.3074 78.7431 10.3543 78.4152 10.448C78.0872 10.5299 77.7945 10.6705 77.5368 10.8696C77.2792 11.0569 77.0684 11.3029 76.9044 11.6073C76.7522 11.9118 76.6761 12.2807 76.6761 12.714C76.6761 13.2059 76.7698 13.6099 76.9571 13.9261C77.1445 14.2423 77.3787 14.5058 77.6598 14.7166C77.9409 14.9157 78.2512 15.0738 78.5908 15.1909C78.9304 15.2963 79.2525 15.3841 79.557 15.4544C79.9669 15.5598 80.2948 15.6652 80.5407 15.7706C80.7866 15.876 80.974 15.9872 81.1028 16.1043C81.2316 16.2097 81.3136 16.3151 81.3487 16.4205C81.3956 16.5259 81.419 16.6313 81.419 16.7367C81.419 17.0412 81.2726 17.2579 80.9799 17.3867C80.6988 17.5038 80.365 17.5624 79.9786 17.5624C79.4633 17.5624 79.0475 17.4862 78.7314 17.334C78.4152 17.17 78.1809 16.971 78.0287 16.7367C77.8647 16.4674 77.7593 16.2449 77.7125 16.0692C77.6657 15.8936 77.6305 15.7472 77.6071 15.6301C77.5837 15.5129 77.5193 15.4075 77.4139 15.3139C77.3202 15.2085 77.2089 15.1558 77.0801 15.1558C76.6117 15.1558 76.3774 15.349 76.3774 15.7355C76.3774 16.0165 76.3892 16.2742 76.4126 16.5084C76.436 16.7426 76.4477 16.9768 76.4477 17.211C76.4477 17.375 76.4419 17.5389 76.4302 17.7029C76.4184 17.8668 76.4126 18.0542 76.4126 18.265C76.4126 18.429 76.4477 18.5695 76.518 18.6866C76.5882 18.8037 76.7581 18.8623 77.0274 18.8623C77.2382 18.8623 77.4022 18.8096 77.5193 18.7042C77.6364 18.6105 77.6949 18.5051 77.6949 18.388V18.1772Z" fill="black"/>
</svg>
